<svg xmlns="http://www.w3.org/2000/svg" width="1023" height="1120" viewBox="0 0 1023 1120" role="img" aria-label="小宗狮 LOGO">
  <title>小宗狮 LOGO</title>
  <path d="M34 524 L34 680 L35 681 L35 691 L61 719 L60 721 L42 733 L35 739 L36 936 L69 968 L73 968 L79 970 L85 970 L86 971 L91 971 L92 972 L97 972 L98 973 L103 973 L104 974 L110 974 L111 975 L116 975 L117 976 L122 976 L123 977 L128 977 L129 978 L135 978 L136 979 L142 979 L143 980 L148 980 L149 981 L169 983 L170 984 L175 984 L176 985 L190 986 L191 987 L205 988 L206 989 L212 989 L213 990 L219 990 L220 991 L227 991 L228 992 L234 992 L235 993 L242 993 L243 994 L250 994 L251 995 L258 995 L259 996 L267 996 L268 997 L275 997 L276 998 L283 998 L284 999 L293 999 L294 1000 L302 1000 L303 1001 L312 1001 L313 1002 L322 1002 L323 1003 L344 1004 L345 1005 L370 1006 L371 1007 L386 1007 L387 1008 L404 1008 L405 1009 L448 1009 L451 1007 L453 1007 L456 1005 L458 1005 L461 1003 L463 1003 L466 1001 L468 1001 L478 996 L480 996 L483 994 L485 994 L495 989 L497 989 L500 987 L502 987 L511 983 L516 986 L518 986 L533 993 L535 993 L538 995 L550 999 L555 1002 L562 1004 L572 1009 L615 1009 L616 1008 L634 1008 L635 1007 L650 1007 L651 1006 L676 1005 L677 1004 L698 1003 L699 1002 L708 1002 L709 1001 L716 1001 L717 1000 L726 1000 L727 999 L744 998 L745 997 L752 997 L753 996 L761 996 L762 995 L769 995 L770 994 L777 994 L778 993 L785 993 L786 992 L793 992 L794 991 L800 991 L801 990 L808 990 L809 989 L815 989 L816 988 L822 988 L823 987 L830 987 L831 986 L837 986 L838 985 L858 983 L859 982 L864 982 L865 981 L885 979 L886 978 L891 978 L892 977 L897 977 L898 976 L904 976 L905 975 L910 975 L911 974 L916 974 L917 973 L922 973 L923 972 L929 972 L930 971 L947 969 L948 968 L951 968 L984 937 L984 904 L985 903 L985 766 L986 765 L986 739 L959 719 L986 690 L987 524 L972 516 L970 514 L963 511 L961 509 L956 507 L954 505 L949 505 L948 506 L935 508 L934 509 L930 509 L929 510 L924 510 L923 511 L919 511 L913 513 L908 513 L907 514 L902 514 L901 515 L896 515 L895 516 L890 516 L889 517 L884 517 L883 518 L878 518 L877 519 L872 519 L871 520 L865 520 L864 521 L858 521 L857 522 L851 522 L850 523 L844 523 L843 524 L837 524 L836 525 L829 525 L828 526 L821 526 L820 527 L813 527 L812 528 L805 528 L804 529 L779 531 L778 532 L769 532 L768 533 L759 533 L758 534 L748 534 L747 535 L728 536 L727 537 L703 538 L702 539 L677 540 L676 541 L662 541 L661 542 L646 542 L645 543 L629 543 L628 544 L608 544 L607 545 L586 545 L585 546 L578 546 L575 548 L547 557 L544 559 L516 568 L513 570 L508 570 L499 567 L496 565 L485 562 L482 560 L468 556 L465 554 L454 551 L451 549 L442 546 L436 546 L435 545 L414 545 L413 544 L393 544 L392 543 L376 543 L375 542 L360 542 L359 541 L344 541 L343 540 L331 540 L330 539 L319 539 L318 538 L307 538 L306 537 L294 537 L293 536 L283 536 L282 535 L273 535 L272 534 L243 532 L242 531 L216 529 L215 528 L208 528 L207 527 L200 527 L199 526 L193 526 L192 525 L185 525 L184 524 L177 524 L176 523 L170 523 L169 522 L164 522 L163 521 L143 519 L142 518 L137 518 L136 517 L113 514 L112 513 L108 513 L102 511 L97 511 L96 510 L92 510 L91 509 L87 509 L86 508 L82 508 L81 507 L77 507 L71 505 L67 505 L63 507 L61 509 L56 511 L54 513 L47 516 L45 518 Z
M38 526 L43 522 L48 520 L67 508 L71 508 L72 509 L77 509 L78 510 L83 510 L84 511 L107 514 L113 516 L118 516 L119 517 L124 517 L125 518 L130 518 L131 519 L137 519 L138 520 L143 520 L144 521 L150 521 L151 522 L156 522 L157 523 L163 523 L164 524 L170 524 L171 525 L176 525 L177 526 L184 526 L185 527 L191 527 L192 528 L198 528 L199 529 L205 529 L206 530 L213 530 L214 531 L220 531 L221 532 L227 532 L228 533 L236 533 L237 534 L253 535 L254 536 L270 537 L271 538 L279 538 L280 539 L289 539 L290 540 L299 540 L300 541 L309 541 L310 542 L321 542 L322 543 L332 543 L333 544 L361 545 L362 546 L408 547 L409 548 L441 548 L450 552 L458 554 L461 556 L466 557 L469 559 L485 564 L488 566 L493 567 L496 569 L504 571 L510 574 L519 571 L522 569 L527 568 L530 566 L538 564 L541 562 L546 561 L549 559 L565 554 L568 552 L576 550 L579 548 L640 547 L641 546 L659 546 L660 545 L673 545 L674 544 L687 544 L688 543 L699 543 L700 542 L731 540 L732 539 L740 539 L741 538 L767 536 L768 535 L775 535 L776 534 L784 534 L785 533 L792 533 L793 532 L800 532 L801 531 L807 531 L808 530 L814 530 L815 529 L821 529 L822 528 L829 528 L830 527 L836 527 L837 526 L857 524 L863 522 L869 522 L870 521 L876 521 L877 520 L882 520 L883 519 L889 519 L890 518 L895 518 L896 517 L901 517 L902 516 L907 516 L908 515 L913 515 L914 514 L919 514 L920 513 L925 513 L926 512 L931 512 L932 511 L937 511 L943 509 L953 508 L983 526 L983 567 L982 568 L982 690 L955 720 L956 722 L983 740 L983 754 L982 755 L982 891 L981 892 L981 937 L951 965 L946 967 L942 967 L941 968 L937 968 L931 970 L926 970 L925 971 L920 971 L919 972 L914 972 L913 973 L908 973 L907 974 L902 974 L901 975 L896 975 L895 976 L890 976 L889 977 L869 979 L868 980 L861 980 L860 981 L854 981 L853 982 L847 982 L846 983 L840 983 L839 984 L832 984 L831 985 L824 985 L823 986 L816 986 L815 987 L808 987 L807 988 L800 988 L799 989 L792 989 L791 990 L784 990 L783 991 L776 991 L775 992 L767 992 L766 993 L758 993 L757 994 L749 994 L748 995 L740 995 L739 996 L731 996 L730 997 L721 997 L720 998 L712 998 L711 999 L700 999 L699 1000 L667 1002 L666 1003 L652 1003 L651 1004 L638 1004 L637 1005 L621 1005 L620 1006 L600 1006 L599 1007 L574 1007 L571 1005 L569 1005 L564 1002 L552 998 L547 995 L545 995 L540 992 L533 990 L528 987 L521 985 L511 980 L507 981 L497 986 L495 986 L485 991 L483 991 L478 994 L471 996 L466 999 L459 1001 L447 1007 L421 1007 L420 1006 L401 1006 L400 1005 L384 1005 L383 1004 L369 1004 L368 1003 L343 1002 L342 1001 L332 1001 L331 1000 L322 1000 L321 999 L301 998 L300 997 L282 996 L281 995 L273 995 L272 994 L264 994 L263 993 L255 993 L254 992 L245 992 L244 991 L237 991 L236 990 L229 990 L228 989 L221 989 L220 988 L213 988 L212 987 L205 987 L204 986 L181 984 L180 983 L174 983 L173 982 L167 982 L166 981 L160 981 L159 980 L153 980 L152 979 L146 979 L145 978 L125 976 L124 975 L119 975 L118 974 L95 971 L94 970 L90 970 L89 969 L85 969 L84 968 L79 968 L78 967 L71 966 L39 936 L38 740 L47 733 L63 723 L66 720 L39 691 L39 647 L38 646 Z" fill="#84e8f0" fill-rule="evenodd"/>
  <path d="M239 1057 L240 1066 L242 1070 L247 1075 L253 1079 L269 1086 L275 1087 L285 1091 L288 1091 L289 1092 L292 1092 L293 1093 L316 1098 L317 1099 L333 1101 L334 1102 L358 1103 L359 1104 L395 1103 L396 1102 L413 1101 L414 1100 L431 1098 L432 1097 L436 1097 L441 1095 L449 1094 L461 1090 L477 1082 L481 1079 L485 1074 L488 1067 L488 1060 L483 1064 L461 1073 L458 1073 L454 1075 L447 1076 L446 1077 L442 1077 L436 1079 L431 1079 L430 1080 L416 1081 L415 1082 L404 1082 L403 1083 L383 1083 L382 1084 L381 1083 L342 1083 L341 1082 L331 1082 L330 1081 L317 1080 L316 1079 L306 1078 L305 1077 L294 1075 L290 1073 L287 1073 L275 1069 L272 1067 L267 1066 L264 1064 L262 1064 L246 1056 L241 1052 L240 1052 L240 1056 Z
M717 1040 L715 1034 L713 1034 L709 1038 L697 1046 L672 1058 L660 1062 L657 1062 L653 1064 L646 1065 L645 1066 L641 1066 L635 1068 L630 1068 L629 1069 L623 1069 L622 1070 L601 1071 L600 1072 L548 1072 L547 1071 L534 1071 L533 1070 L527 1070 L526 1069 L519 1069 L514 1067 L506 1066 L496 1062 L496 1069 L495 1071 L510 1078 L519 1081 L522 1081 L526 1083 L534 1084 L535 1085 L543 1086 L544 1087 L558 1088 L559 1089 L570 1089 L571 1090 L607 1090 L608 1089 L620 1089 L621 1088 L637 1087 L638 1086 L649 1085 L650 1084 L654 1084 L655 1083 L659 1083 L660 1082 L675 1079 L690 1074 L697 1070 L699 1070 L705 1066 L714 1057 L717 1050 Z
M861 511 L852 512 L851 513 L845 513 L844 514 L839 514 L838 515 L833 515 L832 516 L826 516 L825 517 L820 517 L819 518 L813 518 L812 519 L807 519 L806 520 L800 520 L799 521 L794 521 L793 522 L787 522 L786 523 L781 523 L780 524 L775 524 L774 525 L768 525 L762 531 L779 530 L780 529 L788 529 L789 528 L797 528 L798 527 L814 526 L815 525 L821 525 L822 524 L829 524 L830 523 L837 523 L838 522 L858 520 Z
M107 503 L109 511 L117 512 L118 513 L123 513 L124 514 L136 515 L137 516 L142 516 L143 517 L148 517 L149 518 L162 519 L163 520 L160 512 L158 511 L146 510 L145 509 L140 509 L139 508 L134 508 L133 507 L127 507 L126 506 L121 506 L120 505 L114 505 L113 504 L108 504 Z
M274 454 L274 471 L275 472 L276 479 L283 495 L285 497 L289 505 L298 517 L317 537 L341 538 L342 539 L356 539 L357 540 L372 540 L373 541 L388 541 L389 542 L409 542 L410 543 L431 543 L432 544 L442 544 L451 548 L462 551 L465 553 L479 557 L482 559 L493 562 L496 564 L508 568 L516 567 L519 565 L533 561 L536 559 L547 556 L550 554 L564 550 L567 548 L579 544 L610 543 L611 542 L631 542 L632 541 L647 541 L648 540 L663 540 L664 539 L679 539 L680 538 L691 538 L692 537 L704 537 L705 536 L716 536 L717 535 L728 535 L729 534 L748 533 L761 521 L761 520 L757 518 L756 516 L757 515 L766 514 L774 504 L784 484 L787 475 L787 472 L788 471 L788 467 L789 466 L789 447 L788 446 L788 442 L786 436 L779 423 L757 396 L754 391 L735 370 L735 369 L711 344 L710 344 L690 325 L660 302 L636 287 L625 282 L621 279 L619 279 L603 271 L598 270 L595 268 L583 264 L580 264 L576 262 L573 262 L564 259 L560 259 L554 257 L549 257 L548 256 L541 256 L540 255 L528 255 L527 256 L520 256 L519 257 L510 258 L483 267 L460 278 L458 278 L432 291 L430 293 L415 301 L390 318 L368 335 L345 356 L344 356 L305 396 L296 408 L295 411 L287 423 L284 430 L282 432 L278 440 L275 449 L275 453 Z
M455 500 L459 493 L462 490 L466 490 L470 493 L469 499 L471 500 L485 503 L486 504 L500 506 L498 504 L496 499 L496 430 L499 424 L503 420 L510 417 L516 417 L523 420 L527 424 L530 430 L530 499 L528 504 L523 509 L535 509 L536 510 L588 510 L587 510 L581 504 L579 499 L579 429 L581 425 L587 419 L591 417 L599 417 L604 419 L610 425 L612 431 L612 498 L609 505 L606 508 L618 505 L626 501 L629 498 L629 493 L631 490 L633 490 L636 493 L636 503 L635 505 L630 509 L615 514 L599 516 L598 517 L587 517 L586 518 L554 518 L553 517 L534 517 L533 516 L519 516 L518 515 L511 515 L510 514 L502 514 L501 513 L496 513 L495 512 L487 511 L483 509 L480 509 L476 507 L470 506 L466 504 L464 507 L460 507 L455 503 Z
M487 388 L492 383 L494 383 L502 387 L525 402 L535 411 L537 416 L536 421 L534 423 L527 423 L491 396 L487 392 Z
M615 386 L616 388 L615 391 L583 421 L578 421 L574 417 L574 410 L575 408 L584 399 L595 390 L607 382 L609 382 Z
M657 217 L655 219 L652 220 L642 230 L630 249 L621 270 L639 279 L673 301 L705 327 L727 349 L728 349 L738 340 L746 329 L752 318 L752 316 L754 313 L757 304 L758 295 L759 294 L759 285 L758 284 L757 276 L755 273 L754 269 L750 263 L741 253 L713 230 L702 224 L700 222 L690 217 L675 212 L666 213 Z
M432 213 L423 209 L412 208 L411 209 L406 209 L405 210 L398 211 L389 215 L384 216 L381 218 L374 220 L355 230 L333 246 L323 256 L319 267 L318 276 L317 277 L318 291 L327 313 L334 323 L343 332 L343 333 L350 339 L355 336 L380 315 L409 295 L412 294 L424 286 L431 283 L433 281 L467 265 L467 262 L464 256 L464 254 L448 228 Z
M388 25 L374 28 L373 29 L370 29 L356 34 L353 34 L350 36 L339 39 L336 41 L324 45 L319 48 L317 48 L285 64 L252 85 L225 106 L190 140 L173 160 L161 176 L151 191 L147 199 L143 204 L124 241 L124 243 L121 248 L116 263 L114 266 L113 271 L111 274 L111 277 L106 290 L105 297 L103 301 L103 304 L100 313 L100 317 L99 318 L99 322 L98 323 L98 327 L96 333 L95 345 L94 346 L93 362 L92 363 L92 375 L91 376 L91 425 L92 426 L93 445 L94 446 L94 452 L96 458 L97 469 L98 470 L98 473 L99 474 L99 477 L100 478 L100 481 L103 490 L105 491 L110 491 L111 492 L116 492 L117 493 L123 493 L124 494 L129 494 L130 495 L135 495 L136 496 L142 496 L143 497 L148 497 L149 498 L154 498 L156 499 L154 494 L153 487 L151 483 L150 475 L149 474 L148 466 L147 465 L147 461 L146 460 L146 455 L145 454 L145 449 L144 448 L144 442 L143 441 L143 435 L142 434 L142 429 L141 428 L141 423 L140 422 L140 416 L139 415 L139 406 L138 405 L138 370 L139 369 L139 355 L140 354 L140 345 L141 344 L142 328 L143 327 L146 304 L148 299 L148 295 L149 294 L149 290 L151 285 L151 281 L152 280 L152 277 L154 273 L156 262 L159 255 L159 252 L165 234 L167 231 L168 226 L170 223 L174 211 L178 204 L178 202 L189 180 L191 178 L200 161 L210 146 L229 122 L255 96 L275 80 L308 59 L341 42 L343 42 L348 39 L350 39 L355 36 L365 33 L368 31 Z
M175 231 L173 239 L171 242 L168 251 L168 254 L165 261 L165 264 L163 268 L163 271 L162 272 L162 275 L161 276 L161 279 L159 283 L159 287 L157 292 L156 301 L154 306 L154 311 L153 312 L153 317 L152 318 L152 323 L151 324 L151 329 L150 330 L150 338 L149 339 L149 346 L148 347 L148 357 L147 358 L147 372 L146 373 L146 400 L147 401 L147 413 L148 414 L148 420 L149 421 L149 426 L150 427 L150 432 L151 433 L151 439 L152 440 L155 463 L156 464 L156 468 L157 469 L161 488 L163 492 L163 495 L165 500 L168 501 L180 502 L181 503 L186 503 L187 504 L192 504 L193 505 L199 505 L200 506 L205 506 L206 507 L211 507 L212 508 L218 508 L219 509 L224 509 L225 510 L230 510 L231 511 L237 511 L238 512 L243 512 L244 513 L249 513 L250 514 L256 514 L257 515 L262 515 L266 517 L254 526 L249 526 L248 525 L243 525 L242 524 L237 524 L236 523 L230 523 L229 522 L224 522 L223 521 L217 521 L216 520 L204 519 L203 518 L198 518 L197 517 L192 517 L191 516 L185 516 L184 515 L179 515 L178 514 L172 514 L169 513 L172 521 L183 522 L184 523 L190 523 L191 524 L198 524 L199 525 L206 525 L207 526 L214 526 L215 527 L240 529 L241 530 L250 530 L251 531 L260 531 L261 532 L270 532 L271 533 L280 533 L281 534 L291 534 L292 535 L303 535 L304 536 L293 524 L281 508 L271 489 L271 487 L268 481 L267 474 L266 473 L266 452 L267 451 L268 443 L282 415 L294 396 L311 378 L311 377 L333 355 L334 355 L321 341 L312 328 L304 313 L304 311 L301 305 L301 302 L299 297 L299 291 L298 290 L298 284 L299 283 L300 274 L305 263 L310 256 L327 239 L341 228 L357 218 L363 215 L365 215 L374 210 L376 210 L379 208 L381 208 L384 206 L393 203 L396 203 L401 201 L407 201 L408 200 L420 200 L421 201 L428 202 L436 206 L443 211 L452 220 L462 234 L468 246 L470 248 L470 250 L473 255 L475 262 L483 258 L504 251 L517 249 L518 248 L525 248 L526 247 L543 247 L544 248 L551 248 L552 249 L562 250 L567 252 L575 253 L593 259 L603 241 L614 225 L630 210 L641 204 L647 202 L665 202 L666 203 L674 204 L692 210 L711 220 L725 230 L750 252 L760 265 L763 271 L765 277 L765 280 L766 281 L766 300 L765 301 L765 304 L764 305 L764 308 L761 317 L748 341 L745 345 L734 355 L734 356 L763 389 L787 420 L793 431 L796 440 L796 444 L797 445 L797 456 L798 457 L798 460 L797 461 L797 469 L796 470 L794 481 L791 487 L791 489 L783 505 L778 512 L865 498 L867 492 L867 489 L868 488 L868 485 L869 484 L869 481 L870 480 L870 477 L871 476 L871 473 L872 472 L872 468 L873 467 L873 463 L875 457 L875 452 L876 451 L876 446 L877 445 L877 440 L878 439 L878 433 L879 432 L880 413 L881 412 L881 397 L882 396 L882 365 L881 364 L881 350 L880 349 L879 331 L878 330 L877 318 L876 317 L874 303 L872 298 L872 294 L869 286 L868 279 L865 272 L865 269 L862 260 L860 257 L859 252 L853 239 L853 237 L836 203 L815 170 L792 141 L772 120 L771 120 L757 106 L750 101 L744 95 L721 78 L718 77 L710 71 L705 69 L696 63 L661 47 L656 46 L653 44 L629 36 L626 36 L615 32 L612 32 L603 29 L599 29 L594 27 L590 27 L589 26 L585 26 L584 25 L580 25 L574 23 L569 23 L568 22 L563 22 L562 21 L556 21 L555 20 L548 20 L547 19 L541 19 L538 20 L537 19 L521 18 L520 17 L471 17 L470 18 L461 18 L460 19 L452 19 L451 20 L445 20 L444 21 L439 21 L438 22 L432 22 L427 24 L418 25 L417 26 L402 29 L398 31 L391 32 L373 38 L370 40 L365 41 L355 46 L348 48 L316 64 L314 66 L299 74 L273 92 L254 108 L233 130 L229 136 L224 141 L208 164 L200 179 L198 181 L184 209 L184 211 L181 216 L181 218 Z" fill="#fffcf5" fill-rule="evenodd"/>
  <path d="M707 933 L704 935 L707 942 Z
M718 906 L707 915 L703 924 L703 931 L710 931 L711 930 L714 931 L714 944 L714 923 L716 920 L716 915 L717 914 L717 908 Z
M201 745 L201 753 L200 754 L200 786 L201 787 L200 790 L200 806 L200 792 L201 791 L201 787 L200 786 Z
M889 711 L887 717 L881 722 L875 724 L871 724 L870 725 L856 725 L856 739 L857 740 L857 746 L859 748 L857 750 L859 751 L859 753 L865 764 L872 770 L879 773 L885 773 L886 774 L888 773 L896 773 L906 769 L912 763 L915 758 L915 756 L917 753 L918 746 L919 745 L919 741 L920 740 L919 737 L920 734 L920 726 L919 724 L909 721 Z
M862 743 L863 742 L866 742 L868 746 L864 749 L862 747 Z
M872 739 L873 739 L876 743 L874 746 L871 746 L870 745 L870 741 Z
M897 732 L899 734 L899 736 L896 738 L893 735 Z
M880 727 L882 727 L884 729 L884 746 L882 748 L880 748 L878 746 L878 729 Z
M889 724 L892 727 L892 734 L890 736 L888 736 L886 734 L886 727 Z
M84 705 L74 716 L71 722 L69 728 L69 732 L68 733 L68 751 L69 752 L70 759 L73 768 L84 788 L95 802 L112 819 L113 819 L115 822 L121 824 L124 824 L125 825 L128 825 L129 826 L150 826 L159 823 L172 814 L183 802 L190 791 L195 779 L195 776 L196 775 L196 758 L195 757 L195 752 L194 751 L193 743 L189 732 L187 733 L179 725 L171 709 L169 707 L165 705 L156 705 L151 707 L147 710 L145 713 L144 719 L143 720 L143 727 L144 728 L145 736 L149 745 L148 763 L149 764 L149 768 L151 774 L153 777 L153 780 L147 783 L145 780 L145 778 L141 769 L141 763 L140 762 L141 746 L136 733 L136 728 L135 727 L136 715 L141 705 L132 700 L126 698 L123 698 L122 697 L104 697 L103 698 L99 698 L93 701 L91 701 Z
M884 658 L874 657 L873 656 L860 656 L859 657 L850 658 L847 660 L842 661 L829 668 L820 675 L812 684 L806 693 L801 703 L799 710 L795 712 L794 719 L793 720 L793 734 L794 735 L794 739 L798 748 L798 750 L804 759 L814 769 L823 775 L837 782 L843 783 L844 784 L859 785 L860 784 L868 784 L874 779 L867 776 L862 772 L855 763 L851 754 L851 751 L850 750 L849 751 L846 751 L845 750 L846 747 L849 747 L850 748 L849 746 L849 740 L848 739 L848 723 L840 721 L833 717 L831 717 L827 722 L824 720 L825 717 L830 712 L834 712 L843 717 L849 719 L853 719 L854 720 L871 720 L880 717 L884 713 L885 710 L885 702 L882 696 L873 688 L859 681 L858 678 L860 676 L865 679 L869 680 L878 686 L887 695 L891 703 L910 713 L912 713 L915 715 L924 718 L932 719 L933 720 L944 720 L948 718 L951 713 L951 709 L947 699 L943 693 L932 682 L915 671 L901 664 L899 664 L896 662 Z
M806 753 L807 750 L810 750 L812 752 L809 755 Z
M813 742 L816 740 L818 741 L819 743 L817 745 L815 745 Z
M830 737 L833 737 L834 738 L834 744 L833 745 L830 745 L829 744 L829 738 Z
M801 737 L803 737 L805 739 L805 750 L803 752 L801 752 L799 750 L799 739 Z
M840 732 L843 734 L843 746 L841 748 L837 745 L837 735 Z
M824 731 L827 733 L827 740 L825 742 L821 739 L821 734 Z
M741 540 L726 541 L725 542 L716 542 L715 543 L693 544 L692 545 L680 545 L679 546 L649 547 L648 548 L628 548 L627 549 L580 549 L577 551 L569 553 L566 555 L542 563 L531 568 L523 570 L512 575 L506 574 L503 572 L495 570 L492 568 L476 563 L473 561 L468 560 L465 558 L457 556 L454 554 L449 553 L440 549 L393 549 L392 548 L372 548 L371 547 L356 547 L355 546 L341 546 L340 545 L323 544 L343 562 L376 587 L379 588 L387 594 L390 595 L402 603 L407 605 L409 607 L431 618 L433 618 L438 621 L440 621 L445 624 L455 627 L458 629 L473 634 L476 634 L480 636 L487 637 L488 638 L489 634 L492 631 L497 631 L500 634 L500 640 L503 641 L509 641 L510 642 L517 642 L518 643 L528 643 L528 630 L530 627 L532 626 L536 626 L540 630 L540 644 L544 644 L545 643 L548 643 L548 638 L552 635 L556 635 L559 638 L560 643 L563 642 L570 642 L572 640 L574 640 L576 642 L575 641 L576 640 L590 637 L599 634 L602 632 L607 631 L640 615 L642 613 L654 607 L665 599 L668 598 L684 586 L688 584 L715 563 Z
M856 525 L853 526 L847 526 L846 527 L840 527 L839 528 L833 528 L832 529 L825 529 L824 530 L811 531 L810 532 L796 533 L795 534 L788 534 L787 535 L780 535 L779 536 L771 536 L770 537 L763 537 L762 538 L754 538 L735 556 L706 580 L686 595 L659 613 L642 622 L640 624 L620 634 L618 634 L608 639 L603 640 L594 644 L580 647 L579 648 L579 682 L576 685 L571 685 L567 680 L567 650 L560 651 L560 680 L556 685 L551 685 L548 682 L548 651 L542 651 L540 652 L540 681 L536 685 L532 685 L530 684 L528 681 L528 651 L529 650 L528 651 L520 651 L520 682 L517 685 L512 685 L508 680 L508 651 L510 649 L503 649 L502 648 L500 648 L500 682 L497 685 L492 685 L488 680 L488 646 L483 644 L476 643 L472 641 L469 641 L457 637 L454 635 L449 634 L446 632 L444 632 L439 629 L432 627 L395 608 L377 596 L374 595 L371 592 L352 579 L337 567 L311 543 L296 542 L295 541 L286 541 L285 540 L276 540 L275 539 L267 539 L266 538 L250 537 L249 536 L242 536 L241 535 L233 535 L232 534 L225 534 L224 533 L218 533 L217 532 L211 532 L210 531 L204 531 L203 530 L196 530 L195 529 L189 529 L188 528 L182 528 L181 527 L174 527 L177 533 L177 535 L182 545 L182 547 L193 569 L195 571 L203 586 L221 612 L237 631 L256 650 L283 672 L301 684 L318 693 L320 695 L345 707 L347 707 L360 713 L368 715 L371 717 L377 719 L380 719 L390 723 L401 725 L409 728 L418 729 L423 731 L433 732 L434 733 L444 734 L445 735 L451 735 L452 736 L459 736 L460 737 L467 737 L468 738 L479 738 L481 739 L475 736 L482 729 L492 722 L502 717 L511 714 L514 714 L515 713 L519 713 L525 711 L537 711 L538 710 L541 710 L544 712 L544 720 L546 721 L556 721 L557 722 L568 723 L585 730 L589 733 L587 734 L591 733 L600 725 L607 730 L609 730 L610 729 L618 728 L619 727 L638 723 L642 721 L645 721 L669 713 L672 711 L677 710 L715 692 L717 690 L722 688 L727 684 L733 681 L761 660 L779 643 L780 643 L803 618 L823 591 L832 575 L834 573 L839 562 L841 560 L845 552 L845 550 L853 534 Z
M112 517 L116 529 L123 542 L123 544 L126 550 L132 559 L135 566 L145 580 L146 583 L168 611 L187 631 L188 631 L199 642 L219 658 L223 660 L233 668 L236 669 L241 673 L256 681 L258 683 L276 692 L292 687 L269 671 L258 662 L249 653 L248 653 L235 640 L235 639 L216 618 L197 591 L189 576 L187 574 L173 546 L173 544 L168 534 L165 525 Z" fill="#d6edef" fill-rule="evenodd"/>
  <path d="M251 894 L245 896 L245 917 L245 912 L246 911 L247 903 Z
M39 740 L39 759 L40 760 L40 896 L41 897 L41 937 L72 965 L76 965 L77 966 L81 966 L82 967 L86 967 L92 969 L97 969 L98 970 L103 970 L104 971 L109 971 L110 972 L115 972 L116 973 L121 973 L122 974 L127 974 L128 975 L134 975 L135 976 L141 976 L142 977 L148 977 L149 978 L155 978 L156 979 L162 979 L163 980 L169 980 L170 981 L176 981 L177 982 L184 982 L185 983 L192 983 L193 984 L200 984 L201 985 L208 985 L209 986 L216 986 L217 987 L224 987 L225 988 L232 988 L233 989 L240 989 L243 990 L244 954 L241 957 L238 957 L234 954 L233 951 L233 899 L223 900 L223 949 L219 954 L216 955 L211 951 L211 899 L202 897 L202 948 L200 951 L196 953 L193 952 L190 948 L190 893 L163 878 L146 865 L128 848 L128 847 L119 838 L110 826 L107 825 L88 806 L80 796 L71 782 L63 764 L63 761 L61 756 L61 752 L60 751 L60 732 L61 731 L61 727 L62 725 Z
M981 740 L955 722 L950 726 L945 728 L932 728 L931 727 L928 727 L928 738 L927 739 L926 751 L922 760 L922 762 L920 764 L919 767 L911 775 L904 779 L898 780 L897 781 L888 781 L887 782 L885 781 L879 781 L875 784 L873 792 L863 813 L866 814 L876 823 L879 827 L884 839 L884 845 L885 847 L884 848 L883 859 L878 870 L873 877 L855 894 L844 901 L829 908 L817 912 L805 914 L804 915 L798 915 L797 916 L780 916 L784 928 L782 938 L779 943 L772 950 L761 956 L755 958 L750 958 L749 959 L736 959 L735 958 L730 958 L724 956 L714 951 L714 956 L716 958 L718 958 L726 962 L730 962 L731 963 L742 963 L743 962 L753 961 L765 957 L771 954 L779 948 L788 939 L792 932 L793 926 L795 924 L796 925 L795 931 L790 940 L775 954 L764 960 L755 963 L752 963 L751 964 L747 964 L746 965 L728 965 L719 961 L717 961 L714 959 L715 997 L717 996 L725 996 L726 995 L735 995 L736 994 L753 993 L754 992 L762 992 L763 991 L771 991 L772 990 L780 990 L781 989 L788 989 L789 988 L796 988 L797 987 L804 987 L805 986 L812 986 L813 985 L820 985 L821 984 L828 984 L829 983 L836 983 L837 982 L843 982 L844 981 L850 981 L851 980 L857 980 L858 979 L864 979 L865 978 L871 978 L872 977 L886 976 L887 975 L892 975 L893 974 L905 973 L906 972 L923 970 L929 968 L934 968 L935 967 L939 967 L940 966 L944 966 L950 964 L968 947 L969 947 L980 936 Z
M929 748 L932 748 L933 749 L933 755 L932 756 L929 756 L927 753 L927 751 Z
M981 526 L955 511 L953 509 L946 510 L945 511 L940 511 L939 512 L934 512 L933 513 L928 513 L922 515 L917 515 L916 516 L911 516 L910 517 L905 517 L904 518 L899 518 L898 519 L886 520 L885 521 L873 522 L872 523 L867 523 L865 524 L861 533 L860 538 L852 554 L852 556 L847 564 L841 577 L837 582 L836 585 L825 602 L810 622 L791 642 L791 643 L772 661 L744 683 L731 691 L731 692 L733 692 L743 697 L745 697 L777 714 L780 714 L783 711 L788 709 L792 706 L794 699 L803 683 L811 673 L821 664 L827 660 L849 650 L859 649 L860 648 L873 648 L874 649 L885 650 L889 652 L895 653 L903 657 L905 657 L924 667 L937 676 L949 688 L955 697 L959 708 L959 714 L958 715 L980 691 L980 662 L981 661 Z
M39 526 L39 572 L40 573 L40 690 L65 717 L67 712 L70 708 L79 699 L87 694 L89 694 L94 691 L102 690 L103 689 L122 689 L123 690 L127 690 L128 691 L134 692 L144 697 L147 700 L154 697 L166 697 L171 699 L178 705 L179 709 L186 721 L191 726 L193 726 L199 730 L199 727 L201 726 L202 727 L202 732 L208 736 L211 731 L228 715 L239 708 L248 704 L250 702 L265 696 L265 695 L256 691 L254 689 L247 686 L237 679 L234 678 L211 662 L201 653 L195 649 L184 638 L183 638 L162 616 L148 599 L127 568 L125 563 L123 561 L120 554 L117 550 L117 548 L109 533 L109 531 L102 515 L93 514 L92 513 L87 513 L86 512 L81 512 L80 511 L75 511 L74 510 L70 510 L68 509 L44 523 L42 525 Z" fill="#d6eff6" fill-rule="evenodd"/>
  <path d="M676 941 L685 937 L679 937 L677 936 Z
M677 929 L677 933 L678 934 L689 935 L695 932 L687 932 L686 931 L683 931 Z
M530 909 L529 909 L529 922 L529 913 L530 912 Z
M461 908 L460 919 L461 919 L464 923 L464 960 L460 965 L456 965 L452 961 L452 958 L449 969 L446 974 L445 978 L467 978 L468 977 L478 977 L479 976 L486 976 L487 975 L499 974 L500 973 L504 973 L512 970 L515 970 L519 963 L517 959 L517 909 L465 909 L464 908 Z
M501 935 L504 936 L508 941 L508 959 L506 963 L503 965 L500 965 L495 959 L495 942 L496 939 Z
M479 925 L483 926 L486 930 L486 961 L482 965 L478 965 L474 961 L474 929 Z
M255 905 L254 913 L253 914 L253 919 L252 920 L252 928 L255 931 Z
M614 901 L603 902 L602 903 L596 903 L595 904 L589 904 L588 905 L551 908 L551 958 L550 960 L546 963 L542 962 L539 958 L539 909 L535 909 L533 931 L532 932 L532 937 L531 938 L531 942 L529 947 L529 958 L528 960 L524 963 L523 967 L520 971 L551 971 L552 970 L562 970 L563 969 L572 969 L573 968 L586 967 L587 966 L592 966 L593 965 L598 965 L599 964 L613 962 L614 961 L614 956 L615 955 L615 904 Z
M632 897 L619 900 L620 902 L620 957 L619 960 L638 956 L656 950 L659 948 L664 947 L669 944 L671 944 L671 938 L672 935 L661 932 L651 927 L639 916 L634 907 Z
M364 904 L362 915 L359 924 L357 927 L356 932 L354 934 L354 959 L350 963 L347 963 L343 961 L341 965 L338 968 L339 969 L355 971 L356 972 L362 972 L363 973 L378 974 L379 975 L398 976 L399 977 L411 977 L412 978 L439 978 L444 967 L448 955 L451 940 L452 939 L452 922 L455 919 L456 908 L442 907 L442 961 L438 965 L434 965 L430 960 L430 906 L420 905 L420 961 L416 965 L412 965 L408 961 L408 903 L398 902 L398 961 L394 965 L390 965 L386 960 L386 899 L382 899 L376 897 L376 961 L372 965 L368 965 L364 960 Z
M634 896 L635 897 L635 902 L638 908 L638 910 L642 916 L648 922 L658 928 L660 928 L666 931 L672 932 L672 927 L668 926 L661 922 L648 910 L643 902 L641 895 L639 896 Z
M354 892 L354 923 L354 920 L357 913 L357 910 L359 906 L360 898 L361 897 L361 894 L355 893 Z
M245 891 L252 889 L245 888 Z
M223 885 L223 895 L233 894 L233 886 Z
M277 881 L272 885 L267 887 L267 942 L277 948 Z
M202 880 L202 891 L211 894 L211 882 L208 882 Z
M311 879 L311 956 L307 961 L310 961 L317 964 L332 967 L336 963 L342 952 L342 889 L333 886 L333 956 L332 959 L329 962 L326 963 L324 962 L320 957 L320 882 Z
M290 871 L289 872 L289 954 L299 958 L299 874 L293 871 Z
M168 875 L190 887 L190 875 L182 871 L176 874 Z
M190 866 L187 868 L190 869 Z
M299 861 L295 866 L295 867 L297 867 L299 869 Z
M670 848 L655 857 L642 870 L637 879 L635 885 L635 890 L634 891 L640 890 L641 880 L643 874 L648 866 L657 857 L663 853 L670 850 Z
M464 844 L464 868 L463 869 L462 903 L467 903 L468 904 L519 904 L520 903 L525 903 L526 904 L530 904 L530 900 L531 899 L531 854 L530 853 L530 844 L514 844 L513 845 L475 845 L474 844 Z
M719 839 L720 846 L724 847 L724 844 L722 839 Z
M711 838 L709 839 L698 839 L697 840 L693 840 L692 841 L685 842 L675 846 L675 848 L679 846 L687 845 L688 844 L697 844 L698 843 L711 844 Z
M378 837 L377 843 L376 844 L376 848 L375 849 L375 853 L374 854 L374 858 L373 859 L373 861 L376 864 L376 892 L386 894 L386 861 L389 857 L393 856 L398 860 L398 896 L399 897 L405 897 L408 898 L408 878 L411 874 L415 873 L417 874 L420 878 L420 900 L427 900 L430 901 L430 885 L434 881 L438 881 L440 882 L442 885 L442 902 L449 902 L450 903 L456 903 L457 902 L458 865 L459 864 L459 844 L437 843 L436 842 L424 842 L423 841 L412 841 L411 840 L401 840 L400 839 L390 839 L389 838 L381 838 Z
M610 835 L605 835 L604 836 L599 836 L598 837 L593 837 L592 838 L586 838 L585 839 L579 839 L578 840 L562 841 L561 842 L536 843 L535 844 L535 851 L536 852 L536 901 L535 904 L538 904 L539 903 L539 894 L543 890 L547 890 L551 894 L551 903 L567 902 L568 901 L577 901 L578 900 L586 900 L587 899 L593 899 L594 898 L601 898 L602 897 L613 896 L614 895 L614 884 L613 883 L613 869 L612 868 L612 856 L611 855 Z
M265 831 L267 833 L267 867 L267 864 L269 859 L269 855 L270 854 L271 836 L270 835 L270 832 L266 832 Z
M534 830 L534 833 L541 838 L545 838 Z
M323 829 L318 838 L307 853 L307 854 L310 856 L311 859 L311 873 L320 876 L321 868 L325 865 L328 865 L331 867 L333 872 L333 881 L342 884 L342 878 L343 875 L347 872 L350 872 L354 876 L354 887 L362 889 L363 882 L364 881 L364 865 L365 863 L368 861 L369 852 L370 851 L372 838 L373 837 L370 836 L355 835 L354 834 L348 834 L347 833 L341 833 L340 832 L334 832 L333 831 L329 831 Z
M718 829 L718 834 L719 836 L722 837 L721 835 L721 828 Z
M118 828 L133 846 L155 866 L161 870 L170 870 L176 868 L164 860 L149 845 L140 831 L129 831 L128 830 L124 830 Z
M534 825 L534 827 L548 838 L550 837 Z
M667 820 L646 827 L643 827 L638 829 L634 829 L625 832 L616 833 L615 834 L616 853 L617 854 L617 866 L618 867 L619 894 L624 894 L625 893 L632 892 L632 886 L635 877 L643 865 L655 854 L666 848 L668 846 L670 846 Z
M533 819 L533 821 L536 824 L554 837 L557 837 Z
M229 815 L219 835 L207 851 L201 857 L200 857 L202 859 L202 874 L211 877 L211 849 L215 846 L218 846 L220 847 L223 851 L223 880 L233 881 L233 840 L234 837 L236 835 L241 834 L243 835 L245 838 L245 883 L255 884 L255 835 L259 830 L262 830 L259 830 L253 827 L251 827 Z
M532 814 L533 815 L532 816 L552 831 L556 833 L559 836 L562 836 L540 819 Z
M490 810 L522 834 L527 839 L530 839 L529 837 L524 834 L492 809 Z
M531 808 L532 811 L544 819 L566 836 L568 836 L566 833 L550 822 L535 810 Z
M494 808 L529 834 L529 832 L499 809 L496 807 Z
M498 805 L498 806 L529 829 L529 826 L501 805 Z
M606 804 L601 810 L607 814 Z
M502 803 L528 823 L528 821 L525 818 L503 802 Z
M529 801 L530 804 L535 808 L539 810 L572 835 L575 835 L559 824 Z
M505 801 L521 812 L529 819 L525 813 L507 800 Z
M297 800 L296 801 L288 801 L288 810 Z
M703 799 L699 803 L689 810 L678 816 L672 818 L675 843 L690 838 L700 837 L701 836 L710 836 L710 830 L709 829 L709 825 L708 824 L708 820 L707 819 L707 815 L706 814 L706 810 L705 809 Z
M337 799 L334 808 L325 825 L329 825 L335 827 L341 827 L342 828 L348 828 L349 829 L355 829 L356 830 L372 831 L374 832 L374 827 L375 826 L375 822 L376 821 L376 817 L377 816 L378 809 L376 808 L372 808 L372 821 L370 822 L369 821 L369 807 L356 805 L340 798 Z
M765 797 L755 808 L744 817 L734 822 L732 824 L726 826 L726 834 L727 835 L727 838 L729 839 L728 841 L727 840 L728 841 L738 830 L747 823 L767 812 L774 810 L769 804 Z
M509 798 L527 812 L525 808 L510 797 Z
M512 796 L525 805 L524 802 L514 795 Z
M329 795 L329 807 L330 804 Z
M326 794 L318 795 L317 796 L314 796 L313 797 L310 797 L304 799 L290 816 L275 830 L275 833 L276 834 L275 856 L274 857 L274 861 L273 862 L273 865 L270 874 L267 878 L267 882 L277 875 L277 850 L280 847 L284 846 L288 849 L289 851 L289 865 L297 857 L311 839 L317 828 L319 826 L326 812 Z
M516 793 L516 794 L520 796 L523 799 L521 795 L518 793 Z
M526 794 L528 798 L575 832 L577 835 L578 834 L584 834 L585 833 L590 833 L591 832 L603 831 L609 829 L608 818 L571 793 L595 811 L599 813 L607 820 L605 821 L566 792 L564 791 L562 792 L600 819 L604 823 L602 824 L560 793 L558 794 L574 805 L581 811 L585 813 L592 819 L596 821 L600 825 L598 826 L556 795 L554 796 L592 824 L595 827 L594 829 L553 798 L549 797 L592 829 L589 830 L546 798 L542 798 L584 828 L587 831 L586 833 L539 798 L534 797 L583 833 L580 834 L565 822 L561 820 L546 808 L542 806 Z
M386 790 L384 807 L399 813 L402 813 L403 814 L406 814 L407 815 L410 815 L411 816 L411 804 L401 800 Z
M197 789 L196 789 L193 796 L187 805 L181 811 L181 812 L170 822 L160 828 L154 830 L151 830 L150 831 L146 831 L155 844 L165 854 L181 865 L183 865 L189 861 L191 857 L193 855 L196 855 L206 844 L217 828 L224 813 L222 810 L213 804 L202 793 L202 807 L200 808 L199 807 L199 791 Z
M840 788 L839 793 L834 803 L838 803 L839 804 L843 804 L847 806 L850 806 L858 810 L864 800 L864 798 L867 793 L868 789 L855 790 L854 789 L843 789 Z
M260 788 L262 790 L269 804 L273 816 L274 824 L286 812 L285 811 L285 801 L270 796 Z
M329 785 L329 789 L331 792 L334 793 L337 785 L335 786 Z
M372 784 L372 804 L373 805 L377 805 L379 806 L379 800 L380 799 L380 794 L381 793 L381 788 L382 787 L375 784 Z
M368 783 L343 785 L340 791 L340 793 L338 795 L346 797 L357 802 L369 804 L369 789 L368 788 Z
M324 784 L319 783 L315 780 L316 781 L312 786 L307 795 L313 793 L316 793 L317 792 L326 791 Z
M236 776 L236 789 L235 790 L235 795 L234 796 L234 800 L233 801 L233 804 L231 810 L255 823 L270 827 L269 826 L269 822 L266 814 L266 811 L264 808 L262 801 L260 799 L257 792 L253 786 L245 777 L245 807 L243 812 L241 810 L242 776 Z
M202 776 L202 786 L214 798 L226 807 L228 802 L229 795 L230 794 L231 776 L229 777 L220 777 L219 778 L208 778 Z
M319 775 L317 778 L321 780 Z
M235 767 L236 769 L236 773 L242 773 Z
M463 764 L464 765 L464 839 L477 839 L478 840 L509 840 L510 839 L524 839 L495 817 L491 813 L488 812 L482 806 L475 796 L471 786 L471 783 L470 782 L470 768 L471 766 L470 765 Z
M477 817 L478 816 L490 826 L488 827 L480 821 Z
M480 814 L481 813 L483 814 L496 825 L505 831 L507 834 L506 835 L482 817 Z
M484 812 L485 811 L519 837 L518 838 L515 837 L503 827 L486 815 Z
M288 762 L288 798 L299 797 L311 778 L298 766 L293 763 Z
M285 797 L284 796 L284 761 L274 762 L273 763 L270 763 L269 764 L266 764 L257 767 L246 767 L245 766 L245 769 L250 775 L252 775 L255 777 L266 790 L273 794 Z
M769 793 L770 796 L775 803 L779 807 L783 807 L792 804 L803 803 L804 802 L829 802 L834 791 L835 786 L827 782 L825 782 L818 777 L815 776 L800 762 L797 757 L788 770 Z
M391 748 L391 752 L390 753 L390 765 L389 766 L389 774 L388 775 L387 787 L400 796 L406 799 L411 800 L414 802 L414 825 L413 826 L411 825 L411 819 L409 818 L398 816 L383 810 L379 832 L382 832 L383 833 L391 833 L392 834 L402 834 L403 835 L413 835 L414 836 L425 836 L426 837 L438 837 L439 838 L459 839 L459 767 L458 766 L458 763 L457 762 L450 762 L449 761 L434 761 L433 762 L419 763 L404 768 L403 766 L408 751 L402 750 L401 749 Z
M202 745 L202 773 L204 774 L209 774 L210 775 L228 774 L231 773 L230 765 L228 759 L221 755 L214 749 Z
M759 743 L753 751 L755 753 L755 755 L752 758 L749 756 L736 780 L736 782 L733 787 L729 799 L727 812 L726 813 L726 820 L728 820 L742 812 L762 793 L758 784 L757 777 L756 776 L756 757 L757 756 L757 751 L758 750 L758 745 Z
M332 743 L329 755 L321 771 L324 778 L326 780 L326 782 L338 782 L344 761 L346 760 L349 762 L349 764 L343 782 L346 782 L347 781 L357 781 L358 780 L371 780 L372 781 L376 781 L382 784 L383 773 L384 772 L384 765 L385 764 L385 751 L386 750 L386 747 L372 746 L371 745 L363 745 L362 744 L352 744 L351 743 Z
M202 738 L202 742 L211 745 Z
M651 734 L645 735 L642 737 L630 741 L632 743 L639 756 L638 757 L633 757 L628 755 L632 767 L632 783 L631 784 L630 790 L624 802 L621 805 L615 804 L611 802 L614 828 L628 826 L629 825 L648 821 L652 819 L655 819 L666 815 L666 808 L665 807 L665 801 L664 800 L663 789 L662 788 L659 769 L657 764 L657 760 L656 759 L656 755 L654 750 L654 746 L653 745 Z
M195 733 L198 742 L198 745 L199 746 L199 750 L199 736 Z
M701 729 L679 729 L678 730 L669 730 L668 731 L656 732 L656 735 L659 744 L659 748 L660 749 L660 753 L662 758 L663 767 L665 772 L666 781 L667 782 L667 787 L668 788 L669 798 L670 799 L670 805 L671 806 L671 813 L687 805 L699 796 L701 793 L693 768 L682 745 L683 742 L686 740 L688 740 L691 743 L691 745 L695 753 L697 740 Z
M326 738 L326 739 L328 738 L352 738 L353 739 L363 739 L364 740 L389 742 L390 743 L402 744 L403 745 L410 746 L413 749 L411 760 L417 759 L418 758 L423 758 L424 757 L431 757 L432 756 L451 756 L452 757 L458 757 L459 758 L468 759 L472 761 L475 753 L479 748 L478 746 L477 747 L476 746 L463 746 L462 745 L441 744 L440 743 L425 742 L424 741 L418 741 L417 740 L411 740 L405 738 L394 737 L393 736 L379 734 L374 732 L370 732 L369 731 L350 727 L335 722 Z
M224 749 L224 750 L225 750 L236 761 L242 763 L242 751 L244 750 L245 751 L245 763 L247 764 L255 764 L256 763 L260 763 L261 762 L264 762 L273 759 L287 758 L288 759 L294 760 L299 763 L312 775 L314 774 L316 770 L303 752 L288 737 L275 728 L259 721 L255 722 L235 738 Z
M252 720 L251 719 L244 719 L243 718 L230 719 L226 721 L214 733 L211 738 L221 747 L233 735 Z
M699 724 L691 715 L687 714 L676 719 L671 720 L668 722 L653 727 L650 727 L643 730 L640 730 L632 733 L624 734 L615 737 L620 742 L625 750 L629 750 L630 751 L623 739 L638 732 L647 729 L654 728 L655 727 L666 726 L667 725 L676 725 L677 724 Z
M790 713 L781 719 L773 726 L768 732 L764 742 L764 745 L763 746 L763 768 L761 770 L761 774 L762 775 L763 782 L766 788 L783 768 L793 754 L791 752 L792 747 L789 740 L789 735 L788 734 L788 719 Z
M767 756 L769 756 L771 758 L771 766 L769 768 L767 768 L765 765 L765 759 Z
M776 753 L779 755 L779 757 L777 759 L773 756 Z
M782 753 L784 751 L787 751 L788 752 L788 754 L786 756 L784 756 Z
M725 712 L720 713 L714 718 L710 723 L705 732 L702 741 L701 751 L700 752 L700 765 L703 771 L709 789 L709 792 L711 796 L711 799 L712 800 L712 803 L715 812 L715 816 L716 817 L716 822 L717 824 L721 823 L721 812 L722 811 L723 801 L726 794 L727 788 L731 780 L731 778 L742 758 L741 756 L741 752 L743 750 L746 752 L758 736 L758 735 L744 724 Z
M731 751 L733 749 L736 749 L737 750 L736 753 L733 753 Z
M726 744 L729 746 L729 750 L728 751 L725 751 L724 750 L724 746 Z
M718 733 L720 733 L722 735 L722 746 L720 748 L718 748 L716 746 L716 735 Z
M729 709 L734 711 L746 719 L761 731 L762 731 L774 718 L751 706 L739 706 L738 707 L734 707 Z
M262 718 L276 724 L289 733 L307 751 L318 766 L326 747 L326 744 L321 745 L319 743 L319 741 L324 730 L329 722 L328 720 L308 714 L305 712 L300 711 L289 706 L279 709 Z
M717 708 L715 708 L709 705 L706 705 L694 711 L703 720 L703 721 L705 722 L708 717 L714 711 L715 711 Z
M300 702 L302 702 L305 704 L316 707 L319 709 L328 712 L331 712 L338 715 L341 715 L345 717 L348 717 L352 719 L358 720 L353 719 L334 710 L332 710 L316 702 L314 700 L308 700 L307 701 Z
M283 704 L271 698 L269 698 L261 702 L259 702 L241 711 L235 715 L251 715 L257 717 L261 714 L268 711 L270 709 L272 709 L279 705 Z
M714 702 L716 702 L722 705 L725 705 L732 702 L741 701 L725 695 L714 701 Z
M281 694 L285 695 L295 700 L301 698 L304 698 L305 697 L308 697 L296 690 L289 691 Z" fill="#55add0" fill-rule="evenodd"/>
  <path d="M724 1042 L723 1041 L723 1038 L721 1032 L716 1024 L715 1011 L714 1010 L714 1003 L709 1003 L712 1026 L705 1033 L691 1042 L679 1048 L664 1053 L661 1055 L658 1055 L654 1057 L651 1057 L642 1060 L638 1060 L632 1062 L627 1062 L626 1063 L620 1063 L619 1064 L610 1064 L609 1065 L593 1065 L592 1066 L554 1066 L553 1065 L539 1065 L538 1064 L530 1064 L529 1063 L517 1062 L505 1058 L502 1058 L496 1055 L493 1052 L493 1049 L492 1048 L492 1029 L493 1028 L493 1023 L494 1022 L494 1018 L495 1017 L496 1011 L498 1009 L514 1008 L515 1007 L521 1007 L522 1006 L528 1006 L529 1005 L534 1005 L535 1004 L540 1004 L541 1003 L550 1002 L550 1001 L542 998 L541 999 L537 999 L531 1001 L525 1001 L524 1002 L518 1002 L517 1003 L510 1003 L509 1004 L499 1004 L498 1005 L461 1005 L451 1009 L460 1009 L461 1010 L491 1010 L492 1011 L490 1015 L490 1019 L488 1025 L488 1033 L487 1034 L488 1052 L485 1055 L472 1062 L470 1062 L467 1064 L455 1068 L452 1068 L443 1071 L439 1071 L433 1073 L428 1073 L427 1074 L420 1074 L419 1075 L412 1075 L411 1076 L399 1076 L398 1077 L347 1077 L346 1076 L335 1076 L334 1075 L320 1074 L319 1073 L314 1073 L313 1072 L309 1072 L308 1071 L293 1068 L272 1061 L262 1056 L260 1056 L247 1049 L241 1044 L243 1038 L243 1035 L245 1031 L246 1023 L247 1022 L247 1017 L248 1016 L248 1013 L245 1012 L243 1013 L242 1024 L241 1025 L239 1036 L233 1054 L233 1065 L237 1074 L244 1081 L259 1089 L261 1089 L264 1091 L273 1094 L276 1094 L283 1097 L298 1100 L302 1102 L306 1102 L315 1105 L331 1107 L332 1108 L352 1109 L353 1110 L383 1110 L384 1109 L398 1109 L399 1108 L416 1107 L417 1106 L434 1104 L443 1101 L451 1100 L458 1097 L461 1097 L481 1087 L485 1084 L491 1077 L496 1078 L503 1082 L505 1082 L508 1084 L520 1088 L523 1088 L532 1091 L536 1091 L537 1092 L541 1092 L542 1093 L554 1094 L555 1095 L566 1095 L567 1096 L611 1096 L612 1095 L623 1095 L624 1094 L632 1094 L633 1093 L646 1092 L647 1091 L651 1091 L652 1090 L656 1090 L657 1089 L661 1089 L662 1088 L666 1088 L667 1087 L674 1086 L695 1079 L703 1075 L715 1066 L719 1061 L723 1053 Z
M237 1057 L238 1056 L238 1052 L240 1049 L246 1054 L260 1061 L262 1061 L270 1065 L294 1073 L297 1073 L306 1076 L310 1076 L311 1077 L316 1077 L317 1078 L322 1078 L323 1079 L329 1079 L330 1080 L360 1081 L361 1082 L404 1081 L405 1080 L415 1080 L416 1079 L423 1079 L424 1078 L436 1077 L437 1076 L446 1075 L447 1074 L450 1074 L461 1070 L467 1069 L484 1061 L488 1058 L490 1059 L490 1067 L488 1073 L480 1082 L466 1090 L464 1090 L461 1092 L449 1096 L441 1097 L440 1098 L432 1099 L431 1100 L426 1100 L425 1101 L420 1101 L419 1102 L413 1102 L412 1103 L404 1103 L403 1104 L395 1104 L394 1105 L363 1106 L362 1105 L344 1105 L343 1104 L335 1104 L334 1103 L322 1102 L321 1101 L317 1101 L316 1100 L313 1100 L312 1099 L309 1099 L308 1098 L285 1093 L278 1090 L275 1090 L266 1087 L251 1080 L240 1070 L237 1062 Z
M719 1040 L719 1051 L716 1057 L708 1066 L701 1071 L693 1075 L675 1081 L672 1081 L671 1082 L668 1082 L659 1085 L650 1086 L649 1087 L630 1089 L629 1090 L607 1091 L606 1092 L572 1092 L571 1091 L552 1090 L551 1089 L539 1088 L534 1086 L530 1086 L529 1085 L522 1084 L510 1080 L507 1078 L505 1078 L495 1073 L493 1071 L494 1069 L494 1061 L495 1060 L497 1060 L506 1064 L514 1065 L519 1067 L533 1068 L534 1069 L546 1069 L547 1070 L602 1070 L603 1069 L614 1069 L615 1068 L630 1067 L631 1066 L635 1066 L636 1065 L640 1065 L641 1064 L645 1064 L646 1063 L653 1062 L657 1060 L660 1060 L669 1057 L677 1053 L679 1053 L700 1042 L710 1035 L714 1031 L716 1032 Z
M245 996 L244 1002 L249 1002 L249 996 Z
M162 512 L165 520 L170 521 L168 514 L166 512 Z
M629 213 L619 222 L611 232 L597 256 L595 258 L596 261 L601 262 L619 270 L619 269 L615 267 L613 267 L610 265 L601 262 L600 259 L609 245 L610 242 L621 227 L630 218 L643 210 L649 209 L650 208 L662 208 L668 210 L679 211 L685 214 L690 215 L704 222 L725 237 L750 260 L758 273 L759 279 L760 280 L760 285 L761 286 L761 293 L760 294 L759 304 L751 324 L739 342 L733 348 L728 351 L732 354 L738 350 L745 342 L751 333 L760 314 L762 308 L762 305 L763 304 L763 301 L764 300 L764 281 L763 280 L763 277 L760 271 L760 269 L753 258 L741 246 L718 227 L702 217 L689 211 L684 210 L681 208 L678 208 L674 206 L666 205 L665 204 L657 204 L655 203 L654 204 L647 204 L641 206 Z
M440 211 L428 204 L425 204 L420 202 L407 202 L406 203 L401 203 L379 210 L354 222 L340 231 L324 244 L310 259 L303 271 L302 277 L301 278 L301 282 L300 283 L300 291 L301 292 L301 297 L302 298 L303 305 L305 308 L307 315 L309 317 L315 329 L325 343 L334 353 L336 354 L350 341 L338 350 L331 343 L324 334 L315 320 L309 308 L306 299 L306 296 L305 295 L305 280 L308 271 L317 258 L336 240 L358 225 L374 217 L376 217 L379 215 L381 215 L384 213 L396 209 L399 209 L404 207 L416 206 L417 207 L426 208 L432 211 L439 216 L448 225 L461 244 L468 259 L469 265 L472 264 L473 261 L471 255 L461 236 L452 223 Z
M509 15 L450 15 L449 16 L438 16 L437 17 L418 18 L415 20 L412 20 L411 19 L410 21 L407 21 L403 23 L389 26 L368 33 L350 41 L348 41 L310 60 L270 86 L251 102 L235 118 L216 141 L195 173 L182 198 L182 200 L172 221 L158 262 L156 273 L152 285 L152 289 L151 290 L150 299 L148 304 L148 308 L147 309 L147 315 L146 316 L146 321 L145 322 L145 327 L144 328 L144 335 L143 336 L143 343 L142 344 L142 353 L141 354 L141 368 L140 369 L140 406 L141 407 L141 416 L142 417 L142 422 L143 423 L143 428 L144 429 L144 434 L145 435 L145 441 L146 442 L146 448 L147 449 L148 460 L149 461 L149 465 L150 466 L150 470 L152 475 L153 483 L155 487 L155 490 L158 499 L163 500 L159 488 L159 485 L158 484 L158 481 L157 480 L157 477 L154 468 L154 464 L153 463 L153 458 L152 457 L151 446 L150 445 L150 439 L149 438 L149 432 L148 431 L148 426 L146 420 L145 398 L144 397 L145 359 L146 358 L146 348 L147 347 L147 339 L148 338 L148 331 L149 330 L149 325 L150 324 L151 312 L152 311 L154 297 L156 292 L157 283 L160 275 L162 264 L166 254 L166 251 L170 239 L175 228 L176 223 L192 188 L194 186 L198 177 L200 175 L207 162 L218 146 L235 125 L258 102 L275 88 L312 64 L339 50 L341 50 L348 46 L350 46 L355 43 L357 43 L370 37 L391 30 L398 29 L402 27 L405 27 L406 26 L409 26 L418 23 L422 23 L423 22 L427 22 L433 20 L438 20 L439 19 L444 19 L445 18 L461 17 L462 16 L472 16 L473 15 Z" fill="#332c2b" fill-rule="evenodd"/>
  <path d="M268 945 L268 950 L277 955 L277 950 Z
M692 935 L700 936 L702 933 L696 933 Z
M674 928 L674 933 L675 933 L675 929 Z
M420 902 L420 903 L430 904 L430 903 L427 902 Z
M398 898 L398 900 L408 901 L408 900 L399 899 Z
M223 898 L228 898 L229 897 L233 897 L233 896 L227 896 L226 897 L223 897 Z
M376 894 L377 896 L386 897 L386 896 Z
M202 894 L202 895 L209 896 L210 897 L210 895 Z
M640 892 L635 893 L635 894 L638 894 L640 893 Z
M255 889 L250 892 L246 893 L246 894 L251 892 L253 893 L253 895 L251 898 L248 907 L248 911 L247 912 L247 917 L246 918 L246 931 L247 928 L249 929 L250 932 L252 931 L253 932 L252 937 L255 940 L255 934 L250 928 L251 913 L255 901 Z
M364 888 L363 891 L355 889 L356 891 L359 891 L363 893 L363 897 L362 898 L362 902 L361 903 L360 910 L358 914 L357 920 L355 923 L355 929 L361 911 L362 904 L363 903 L363 899 L364 898 Z
M246 885 L246 886 L249 886 L250 887 L255 887 L255 886 L252 886 L251 885 Z
M333 883 L333 884 L342 887 L341 885 Z
M223 882 L223 883 L233 884 L233 883 Z
M277 877 L268 883 L268 885 L276 880 Z
M202 876 L202 878 L210 880 L210 879 Z
M311 875 L311 877 L320 880 L319 878 L314 877 Z
M299 857 L297 860 L289 867 L289 869 L291 868 L296 871 L298 871 L298 870 L293 868 L292 866 L298 860 Z
M725 840 L726 844 L726 840 Z
M543 841 L548 841 L547 840 L544 840 Z
M713 839 L713 844 L718 845 L717 839 Z
M557 839 L557 840 L561 840 Z
M531 834 L533 837 L533 835 Z
M336 797 L335 797 L333 800 L331 797 L333 802 L330 807 L330 811 Z
M520 791 L525 795 L522 791 Z
M383 788 L383 793 L382 794 L382 799 L381 800 L381 805 L380 806 L382 806 L382 802 L383 801 L383 795 L384 794 L384 789 Z
M340 785 L339 785 L336 793 L337 794 Z
M313 779 L302 796 L303 796 L308 790 L309 787 L314 780 Z
M202 789 L202 791 L205 794 L206 794 L215 803 L220 807 L223 808 L226 811 L226 814 L221 825 L219 827 L213 838 L206 847 L198 855 L200 855 L211 843 L219 831 L227 815 L227 813 L229 812 L238 818 L254 826 L263 829 L270 830 L272 832 L273 844 L272 845 L271 860 L268 868 L268 873 L272 861 L273 848 L274 847 L274 834 L273 833 L273 830 L292 811 L301 800 L299 800 L292 809 L274 827 L272 825 L272 821 L271 820 L270 813 L262 794 L255 783 L248 777 L260 793 L267 808 L270 817 L271 826 L272 827 L271 829 L268 829 L267 828 L260 827 L254 824 L252 824 L232 813 L229 810 L230 804 L232 800 L233 790 L234 789 L234 776 L233 776 L233 787 L232 788 L231 799 L230 800 L229 806 L227 809 L224 808 L217 803 Z
M347 763 L345 764 L345 767 L340 782 L342 781 Z
M231 762 L233 773 L234 773 L234 769 L233 768 L233 764 L234 763 L242 771 L242 768 L237 764 Z
M202 734 L205 738 L228 756 L222 750 L222 749 L220 749 L209 739 L210 736 L207 738 Z
M192 728 L190 728 L190 731 L192 734 L194 740 L194 743 L196 747 L196 751 L197 752 L197 758 L198 759 L198 775 L197 776 L196 782 L191 793 L182 806 L170 818 L159 825 L153 827 L150 827 L149 828 L130 828 L129 827 L125 827 L124 826 L121 826 L112 823 L112 826 L124 841 L143 860 L165 877 L189 890 L190 890 L190 889 L172 880 L164 874 L165 873 L172 873 L181 869 L190 873 L189 871 L186 870 L184 868 L189 865 L190 862 L185 866 L180 867 L168 859 L154 846 L146 835 L144 830 L145 829 L150 829 L151 828 L157 827 L168 821 L173 817 L186 803 L192 792 L194 790 L194 788 L196 786 L199 788 L199 786 L196 784 L199 776 L199 758 L198 757 L198 751 L197 750 L195 739 L192 733 L192 731 L193 730 L199 733 L199 732 Z
M114 826 L116 825 L117 826 L120 826 L129 829 L141 829 L143 831 L147 839 L154 848 L161 855 L179 868 L177 870 L171 872 L161 872 L146 861 L123 838 Z
M331 720 L332 721 L329 725 L321 741 L321 743 L328 742 L329 744 L325 756 L323 759 L323 761 L318 770 L317 769 L318 771 L315 775 L315 777 L316 777 L324 762 L331 741 L351 741 L352 742 L361 742 L362 743 L371 743 L372 744 L386 745 L388 747 L388 749 L387 750 L387 764 L386 765 L386 772 L385 773 L384 785 L385 785 L385 782 L386 781 L387 766 L388 765 L388 754 L389 753 L389 747 L390 746 L401 747 L402 748 L408 749 L410 751 L409 752 L409 755 L408 756 L408 759 L406 765 L415 762 L418 762 L419 761 L433 760 L434 759 L449 759 L450 760 L457 760 L460 762 L460 767 L461 768 L461 840 L460 841 L454 841 L453 840 L439 840 L438 839 L426 839 L425 838 L414 838 L413 837 L403 837 L402 836 L392 836 L391 835 L378 834 L377 833 L377 829 L378 828 L379 818 L381 812 L380 809 L379 816 L378 817 L378 821 L377 822 L376 832 L374 834 L372 833 L356 832 L355 831 L349 831 L348 830 L342 830 L341 829 L335 829 L334 828 L325 827 L323 824 L327 818 L326 816 L323 823 L321 825 L314 838 L309 844 L307 848 L302 853 L304 853 L307 850 L312 842 L315 839 L322 827 L324 828 L328 828 L329 829 L333 829 L334 830 L340 830 L341 831 L347 831 L348 832 L354 832 L355 833 L374 835 L375 837 L374 838 L374 842 L373 843 L373 847 L372 848 L372 852 L371 853 L370 860 L371 860 L372 858 L375 839 L377 835 L380 835 L381 836 L389 836 L390 837 L400 837 L401 838 L411 838 L412 839 L423 839 L424 840 L436 840 L437 841 L460 842 L461 843 L461 863 L460 864 L460 889 L459 890 L459 902 L457 905 L442 904 L442 905 L447 905 L448 906 L457 906 L458 907 L457 918 L458 918 L459 907 L460 906 L463 906 L464 907 L495 907 L496 908 L498 907 L517 907 L517 906 L469 906 L468 905 L461 905 L460 904 L461 871 L462 870 L462 843 L463 842 L472 842 L473 843 L514 843 L515 842 L531 842 L532 843 L532 853 L533 854 L533 899 L532 900 L532 905 L531 906 L528 906 L532 908 L531 922 L530 923 L530 929 L529 930 L529 942 L530 932 L531 931 L531 925 L532 924 L533 908 L534 907 L539 907 L539 905 L537 906 L534 906 L533 905 L533 902 L534 901 L534 851 L533 850 L533 843 L536 841 L541 841 L539 840 L533 841 L532 840 L531 841 L509 841 L508 842 L480 842 L479 841 L463 841 L462 840 L462 765 L461 763 L462 762 L467 762 L471 764 L471 762 L468 762 L463 760 L459 760 L458 759 L452 759 L451 758 L432 758 L431 759 L418 760 L410 763 L408 761 L409 760 L411 750 L409 748 L406 747 L390 745 L389 744 L382 744 L381 743 L373 743 L372 742 L364 742 L363 741 L353 741 L352 740 L328 740 L325 741 L324 740 L325 735 L328 731 L332 722 L334 721 Z
M309 698 L314 698 L316 697 Z
M873 784 L870 784 L868 786 L844 786 L843 785 L840 785 L821 776 L805 763 L796 750 L796 748 L792 739 L792 734 L791 733 L791 721 L792 720 L793 712 L796 708 L796 706 L793 707 L790 710 L778 717 L774 714 L755 705 L753 703 L751 703 L733 694 L727 693 L727 694 L732 695 L747 702 L746 703 L733 704 L723 708 L711 702 L709 703 L715 705 L721 709 L716 712 L709 719 L704 727 L702 722 L699 718 L692 712 L692 711 L690 712 L694 715 L701 723 L700 726 L677 726 L676 727 L660 728 L659 729 L655 729 L654 730 L651 730 L647 732 L641 733 L626 740 L633 751 L632 753 L627 752 L627 753 L633 755 L637 755 L633 750 L628 740 L648 732 L652 732 L653 733 L653 736 L655 741 L655 745 L657 750 L657 754 L658 755 L658 759 L660 764 L660 768 L661 769 L661 773 L662 774 L665 793 L666 794 L666 800 L667 801 L667 807 L668 808 L668 814 L669 815 L667 817 L652 822 L649 822 L645 824 L641 824 L640 825 L637 825 L628 828 L624 828 L623 829 L619 829 L618 830 L614 830 L613 831 L612 830 L612 824 L611 823 L611 815 L610 814 L609 802 L608 802 L608 808 L609 809 L609 815 L610 816 L610 825 L611 826 L611 830 L608 832 L604 832 L603 833 L598 833 L597 834 L585 835 L584 836 L577 836 L572 838 L569 837 L566 839 L562 838 L563 839 L578 838 L579 837 L592 836 L593 835 L598 835 L599 834 L604 834 L605 833 L610 833 L612 835 L613 855 L614 856 L614 868 L615 869 L615 883 L616 884 L616 896 L613 898 L608 898 L607 899 L602 899 L601 900 L594 900 L593 901 L578 902 L577 903 L568 903 L567 904 L557 904 L556 905 L551 905 L551 906 L579 904 L580 903 L595 902 L596 901 L602 901 L603 900 L608 900 L609 899 L614 899 L615 898 L616 899 L616 904 L617 905 L617 954 L616 955 L616 962 L615 963 L609 965 L605 965 L604 966 L599 966 L598 967 L593 967 L592 968 L587 968 L586 969 L580 969 L579 970 L573 970 L572 971 L552 972 L551 973 L519 973 L518 971 L522 963 L521 963 L516 972 L512 972 L505 975 L495 976 L494 977 L487 977 L486 978 L479 978 L478 979 L468 979 L467 980 L443 980 L442 978 L446 971 L451 956 L452 945 L451 952 L449 956 L449 959 L446 968 L441 978 L439 980 L413 980 L412 979 L400 979 L399 978 L389 978 L388 977 L379 977 L378 976 L363 975 L362 974 L356 974 L355 973 L350 973 L349 972 L344 972 L343 971 L336 970 L335 969 L340 963 L342 959 L342 956 L337 965 L333 969 L329 969 L328 968 L317 966 L313 964 L310 964 L306 962 L303 962 L290 956 L285 959 L312 969 L323 971 L327 973 L341 975 L342 976 L347 976 L348 977 L353 977 L354 978 L360 978 L361 979 L368 979 L369 980 L376 980 L377 981 L385 981 L386 982 L409 983 L410 984 L430 984 L431 985 L450 985 L451 984 L481 983 L482 982 L488 982 L489 981 L495 981 L496 980 L506 979 L514 976 L516 977 L528 977 L529 978 L533 978 L534 977 L554 977 L555 976 L574 975 L575 974 L588 973 L589 972 L594 972 L595 971 L600 971 L601 970 L615 968 L616 967 L624 966 L625 965 L636 963 L640 961 L643 961 L655 957 L658 955 L663 954 L673 949 L675 949 L695 939 L695 938 L687 938 L675 944 L674 943 L675 936 L674 936 L673 938 L673 944 L669 947 L654 952 L651 954 L648 954 L631 960 L623 961 L622 962 L618 962 L617 961 L617 958 L618 957 L618 901 L617 899 L620 897 L630 896 L632 895 L632 894 L625 895 L624 896 L619 896 L618 897 L617 896 L616 867 L615 866 L615 854 L614 853 L614 843 L613 842 L613 833 L615 831 L629 829 L630 828 L653 823 L668 818 L670 823 L671 841 L672 844 L673 844 L670 817 L687 809 L697 802 L703 796 L705 798 L705 801 L706 802 L706 805 L709 814 L710 824 L712 830 L712 836 L717 836 L716 834 L716 828 L722 826 L723 827 L723 835 L724 837 L725 837 L724 834 L724 826 L726 824 L737 819 L746 813 L765 795 L770 802 L776 808 L778 808 L771 801 L766 793 L784 772 L797 754 L801 760 L812 771 L822 778 L834 784 L836 784 L838 786 L831 802 L833 802 L836 793 L838 790 L838 788 L840 786 L843 787 L851 787 L852 788 L868 787 L869 786 L871 788 L868 794 L868 796 L860 811 L861 811 L863 809 L867 801 L867 799 L871 792 Z
M703 726 L704 728 L702 731 L699 740 L698 750 L697 751 L697 758 L696 759 L691 750 L691 748 L688 742 L684 744 L694 765 L695 770 L697 773 L703 791 L703 794 L691 805 L671 815 L669 813 L667 793 L666 792 L666 788 L665 787 L665 783 L664 782 L661 763 L659 758 L658 749 L657 748 L657 745 L654 736 L654 732 L656 730 L668 729 L669 728 L679 728 L680 727 L702 727 Z
M791 711 L792 714 L790 720 L790 734 L791 735 L791 739 L792 740 L793 746 L797 751 L797 753 L795 754 L787 766 L766 791 L764 790 L764 788 L761 783 L759 770 L758 769 L759 780 L761 786 L764 791 L764 794 L744 813 L736 818 L725 823 L724 822 L724 813 L725 812 L725 807 L726 806 L727 799 L732 784 L735 779 L735 777 L744 760 L748 755 L749 752 L761 738 L762 739 L760 745 L760 748 L761 748 L762 742 L766 731 L779 718 L786 713 Z
M723 709 L739 718 L742 721 L750 726 L760 735 L760 737 L753 745 L748 752 L747 755 L742 761 L732 781 L724 806 L723 822 L721 825 L716 826 L714 822 L712 808 L708 796 L708 793 L706 789 L706 786 L698 765 L698 753 L699 752 L700 741 L703 732 L707 724 L718 712 Z
M726 708 L733 705 L738 705 L739 704 L751 704 L766 711 L777 718 L765 730 L765 731 L761 734 L751 725 L735 714 L727 710 Z" fill="#287ea2" fill-rule="evenodd"/>
  <path d="M493 1041 L494 1042 L494 1051 L495 1053 L507 1058 L515 1059 L520 1061 L526 1061 L527 1062 L533 1062 L534 1063 L547 1063 L548 1064 L602 1064 L603 1063 L614 1063 L615 1062 L622 1062 L623 1061 L629 1061 L635 1059 L640 1059 L641 1058 L652 1056 L656 1054 L659 1054 L668 1051 L678 1046 L680 1046 L695 1038 L711 1026 L710 1025 L710 1020 L709 1019 L708 1003 L705 1003 L704 1004 L694 1004 L693 1005 L683 1005 L682 1006 L672 1006 L671 1007 L645 1008 L644 1009 L604 1010 L603 1011 L573 1011 L553 1002 L548 1004 L538 1005 L532 1007 L526 1007 L525 1008 L519 1008 L518 1009 L511 1009 L510 1010 L501 1010 L498 1011 L496 1016 L495 1025 L494 1026 L494 1038 Z
M243 1041 L243 1044 L245 1046 L253 1050 L255 1052 L261 1054 L266 1057 L268 1057 L271 1059 L279 1061 L288 1065 L291 1065 L295 1067 L298 1067 L307 1070 L316 1071 L317 1072 L323 1072 L324 1073 L330 1073 L331 1074 L341 1074 L342 1075 L361 1075 L362 1076 L383 1076 L384 1075 L415 1074 L416 1073 L423 1073 L424 1072 L435 1071 L436 1070 L440 1070 L441 1069 L445 1069 L446 1068 L453 1067 L468 1062 L471 1060 L473 1060 L487 1052 L486 1050 L486 1028 L487 1027 L487 1022 L488 1021 L488 1017 L490 1011 L472 1012 L471 1011 L452 1011 L451 1010 L448 1010 L447 1011 L418 1011 L417 1010 L376 1009 L375 1008 L363 1008 L362 1007 L349 1007 L348 1006 L316 1004 L315 1003 L297 1002 L296 1001 L288 1001 L287 1000 L279 1000 L278 999 L271 999 L270 998 L262 998 L261 997 L254 997 L251 996 L250 1002 L255 1004 L265 1013 L264 1014 L256 1014 L255 1013 L250 1013 L249 1014 L248 1025 L247 1026 L245 1037 Z
M541 997 L529 993 L512 985 L509 985 L506 987 L494 991 L489 994 L482 996 L477 999 L475 999 L472 1001 L463 1004 L503 1003 L504 1002 L513 1002 L514 1001 L527 1000 L528 999 L533 999 L534 998 Z" fill="#c4b08b" fill-rule="evenodd"/>
  <path d="M880 833 L876 826 L867 817 L855 810 L843 806 L839 806 L833 804 L822 804 L821 803 L818 803 L817 804 L803 804 L802 805 L797 805 L796 806 L792 806 L791 807 L784 808 L772 812 L767 815 L765 815 L752 822 L741 830 L730 841 L725 848 L719 862 L719 866 L718 867 L719 880 L725 892 L734 901 L740 905 L751 910 L754 910 L763 913 L767 913 L768 914 L779 914 L780 915 L781 914 L797 914 L798 913 L804 913 L805 912 L820 909 L829 905 L831 905 L847 897 L861 887 L873 874 L878 866 L878 864 L882 855 L883 844 L882 843 L882 839 Z
M767 759 L767 765 L769 766 L769 758 Z
M775 756 L777 757 L777 755 Z
M752 752 L751 753 L752 756 L753 755 Z
M743 752 L742 754 L744 755 L745 753 Z
M760 750 L759 751 L759 767 L760 768 L761 767 L761 751 Z
M930 749 L929 750 L929 754 L930 755 L931 754 L931 750 Z
M855 747 L854 748 L855 750 L856 750 L857 748 Z
M726 746 L725 748 L727 749 L728 747 Z
M865 743 L864 744 L864 747 L866 746 Z
M872 741 L871 743 L873 745 L874 742 Z
M833 739 L830 740 L831 743 L833 742 Z
M801 739 L801 750 L803 750 L803 740 Z
M921 735 L921 744 L923 744 L923 735 Z
M720 735 L718 736 L718 746 L719 747 L720 746 Z
M897 734 L895 735 L896 736 Z
M839 735 L839 745 L841 746 L841 734 Z
M823 734 L823 739 L825 740 L825 733 Z
M880 729 L880 746 L882 746 L882 729 Z
M889 726 L888 727 L888 734 L889 735 L890 734 L890 727 Z
M474 759 L474 762 L472 767 L472 782 L473 783 L473 787 L477 794 L477 796 L487 809 L491 808 L521 788 L525 791 L536 796 L548 796 L549 795 L552 795 L566 788 L590 804 L600 809 L608 799 L618 803 L621 803 L628 790 L630 784 L630 779 L631 778 L630 766 L627 757 L621 746 L610 734 L600 727 L565 759 L561 760 L556 758 L555 756 L576 733 L578 729 L568 725 L558 724 L557 723 L550 723 L549 722 L543 722 L542 721 L542 712 L532 712 L531 713 L519 714 L518 715 L515 715 L498 722 L527 744 L538 755 L537 757 L531 758 L521 764 L486 743 L483 745 L479 750 Z" fill="#fefefe" fill-rule="evenodd"/>
  <path d="M990 958 L976 960 L960 976 L956 976 L950 978 L945 978 L939 980 L934 980 L933 981 L928 981 L927 982 L917 983 L916 984 L911 984 L910 985 L905 985 L899 987 L894 987 L893 988 L870 991 L869 992 L857 993 L856 994 L850 994 L849 995 L843 995 L842 996 L836 996 L835 997 L829 997 L828 998 L822 998 L821 999 L813 999 L812 1000 L797 1001 L796 1002 L789 1002 L788 1003 L770 1004 L758 1013 L773 1012 L774 1011 L781 1011 L782 1010 L789 1010 L790 1009 L798 1009 L799 1008 L806 1008 L807 1007 L814 1007 L815 1006 L822 1006 L823 1005 L830 1005 L831 1004 L838 1004 L839 1003 L847 1003 L848 1002 L855 1002 L856 1001 L862 1001 L863 1000 L870 1000 L871 999 L877 999 L878 998 L884 998 L885 997 L892 997 L893 996 L905 995 L906 994 L911 994 L912 993 L918 993 L919 992 L924 992 L925 991 L930 991 L931 990 L936 990 L942 988 L947 988 L948 987 L957 986 L958 985 L965 984 L989 960 Z
M32 958 L57 984 L61 984 L66 986 L76 987 L82 989 L87 989 L93 991 L98 991 L99 992 L105 992 L106 993 L111 993 L112 994 L131 996 L132 997 L139 997 L140 998 L146 998 L147 999 L153 999 L154 1000 L161 1000 L162 1001 L168 1001 L169 1002 L177 1002 L178 1003 L185 1003 L186 1004 L193 1004 L194 1005 L201 1005 L202 1006 L209 1006 L210 1007 L217 1007 L218 1008 L226 1008 L227 1009 L234 1009 L235 1010 L245 1010 L246 1011 L253 1011 L254 1012 L262 1012 L263 1013 L252 1004 L244 1004 L243 1003 L237 1003 L236 1002 L228 1002 L227 1001 L220 1001 L219 1000 L212 1000 L211 999 L204 999 L203 998 L196 998 L195 997 L189 997 L188 996 L168 994 L167 993 L155 992 L154 991 L149 991 L148 990 L143 990 L142 989 L136 989 L130 987 L125 987 L124 986 L119 986 L118 985 L113 985 L107 983 L102 983 L101 982 L96 982 L90 980 L85 980 L84 979 L79 979 L78 978 L73 978 L68 976 L64 976 L61 975 L46 960 L44 959 Z
M1004 956 L996 957 L974 981 L981 981 Z
M18 955 L18 956 L40 980 L48 981 L25 956 L19 956 Z
M1012 785 L1011 786 L997 788 L997 932 L999 932 L999 864 L1001 862 L1004 863 L1004 909 L1003 910 L1003 931 L981 954 L998 950 L1013 934 Z
M10 785 L10 819 L9 820 L9 934 L24 950 L40 953 L19 931 L19 924 L18 923 L18 863 L19 862 L22 862 L23 863 L23 931 L25 931 L25 807 L24 806 L24 788 L23 787 L18 787 L17 786 L12 786 Z
M994 504 L993 505 L989 505 L988 506 L982 507 L985 508 L1004 520 L1004 581 L1005 582 L1005 589 L1004 590 L1000 590 L999 589 L999 543 L998 542 L998 522 L997 522 L997 665 L999 664 L1011 663 L1012 662 L1012 517 L1010 511 L1007 510 L999 504 Z
M24 504 L10 513 L9 663 L12 664 L18 664 L19 665 L24 665 L25 523 L23 523 L23 581 L22 582 L22 590 L21 591 L18 591 L17 590 L17 521 L36 509 L39 508 L38 507 L34 507 L33 506 L25 505 Z
M31 500 L34 500 L46 504 L60 495 L67 495 L68 496 L73 496 L74 497 L79 497 L80 498 L86 498 L87 499 L92 499 L93 500 L101 500 L106 502 L112 502 L113 503 L125 504 L126 505 L131 505 L132 506 L137 506 L138 507 L144 507 L145 508 L150 508 L151 509 L157 509 L158 510 L165 510 L171 512 L176 512 L177 513 L182 513 L183 514 L189 514 L190 515 L195 515 L196 516 L202 516 L203 517 L208 517 L209 518 L215 518 L216 519 L221 519 L222 520 L228 520 L229 521 L234 521 L235 522 L240 522 L241 523 L247 523 L248 524 L254 524 L263 517 L258 517 L257 516 L252 516 L251 515 L245 515 L244 514 L239 514 L238 513 L233 513 L232 512 L226 512 L225 511 L220 511 L219 510 L214 510 L213 509 L207 509 L206 508 L201 508 L200 507 L195 507 L194 506 L188 506 L187 505 L182 505 L181 504 L176 504 L175 503 L161 502 L156 500 L144 499 L143 498 L138 498 L137 497 L132 497 L131 496 L125 496 L124 495 L119 495 L118 494 L113 494 L112 493 L106 493 L105 492 L98 492 L93 490 L87 490 L86 489 L81 489 L80 488 L75 488 L74 487 L68 487 L67 486 L62 486 L61 485 L54 485 Z
M990 499 L967 484 L962 484 L961 485 L956 485 L955 486 L950 486 L949 487 L943 487 L942 488 L937 488 L936 489 L931 489 L930 490 L924 490 L923 491 L918 491 L917 492 L912 492 L911 493 L905 493 L904 494 L899 494 L898 495 L893 495 L892 496 L886 496 L885 497 L874 498 L868 500 L861 500 L860 501 L855 501 L854 502 L848 502 L847 503 L842 503 L841 504 L836 504 L835 505 L829 505 L828 506 L823 506 L822 507 L817 507 L816 508 L810 508 L809 509 L804 509 L803 510 L798 510 L797 511 L791 511 L790 512 L779 513 L778 514 L768 515 L767 516 L766 515 L765 516 L760 516 L759 517 L766 521 L769 524 L770 523 L775 523 L776 522 L782 522 L783 521 L788 521 L789 520 L808 518 L809 517 L814 517 L815 516 L820 516 L821 515 L827 515 L828 514 L833 514 L834 513 L853 511 L854 510 L859 510 L865 508 L872 508 L873 507 L878 507 L879 506 L885 506 L886 505 L898 504 L899 503 L904 503 L905 502 L911 502 L912 501 L917 501 L918 500 L924 500 L925 499 L930 499 L931 498 L936 498 L937 497 L943 497 L944 496 L949 496 L950 495 L956 495 L957 494 L961 494 L975 503 Z
M974 482 L996 497 L1004 496 L982 481 Z
M47 483 L41 481 L18 496 L19 497 L24 497 L25 498 Z" fill="#8af6f6" fill-rule="evenodd"/>
  <path d="M501 937 L499 938 L497 941 L497 959 L500 963 L503 963 L506 959 L506 941 L504 938 Z
M479 927 L476 929 L476 961 L478 963 L482 963 L484 961 L484 930 L483 928 Z
M457 920 L454 922 L454 961 L456 963 L460 963 L462 960 L462 923 L459 920 Z
M523 904 L519 907 L519 959 L521 961 L525 961 L527 958 L527 907 Z
M543 892 L541 894 L541 958 L542 960 L546 961 L548 960 L549 958 L549 894 L547 892 Z
M436 882 L432 885 L432 960 L434 963 L438 963 L440 961 L440 885 Z
M413 875 L411 876 L410 878 L410 961 L412 963 L416 963 L418 961 L418 878 L415 875 Z
M347 874 L344 877 L344 958 L347 961 L350 961 L353 957 L353 878 L350 874 Z
M325 867 L322 871 L322 957 L324 960 L327 961 L329 960 L331 957 L331 871 L328 867 Z
M1003 864 L1001 864 L1001 931 L1002 930 L1002 868 L1003 867 Z
M19 863 L19 881 L20 882 L20 930 L21 931 L21 864 Z
M369 862 L367 863 L366 865 L366 961 L368 963 L372 963 L374 961 L374 864 L372 862 Z
M391 858 L388 861 L388 960 L390 963 L394 963 L396 961 L396 860 L393 858 Z
M196 856 L192 859 L192 949 L195 951 L197 951 L200 948 L200 859 Z
M303 855 L300 859 L300 956 L302 959 L305 960 L307 959 L309 956 L309 858 L306 855 Z
M282 848 L279 850 L279 956 L282 958 L284 958 L287 955 L287 851 L286 849 Z
M215 848 L212 852 L212 949 L214 952 L218 953 L221 949 L221 851 L220 849 Z
M238 836 L235 839 L235 952 L238 955 L241 955 L244 951 L244 840 L241 836 Z
M261 831 L259 832 L257 835 L257 953 L259 956 L264 956 L266 953 L266 835 L264 832 Z
M514 647 L512 648 L510 651 L510 680 L512 683 L515 684 L517 683 L519 680 L519 651 L517 648 Z
M572 642 L569 645 L569 680 L571 683 L574 684 L577 682 L578 679 L578 646 L575 642 Z
M556 637 L552 637 L549 641 L549 680 L550 682 L553 684 L556 683 L558 680 L558 640 Z
M494 632 L492 633 L490 636 L490 680 L492 683 L495 684 L497 683 L499 680 L499 636 L497 633 Z
M534 627 L530 630 L530 681 L534 684 L538 681 L538 630 Z" fill="#ffffff" fill-rule="evenodd"/>
  <path d="M434 1005 L437 1005 L438 1006 L439 1005 L448 1005 L450 1004 L435 1002 Z
M566 998 L565 993 L552 996 L558 999 Z
M708 955 L708 993 L709 994 L709 997 L713 997 L713 970 L712 969 L713 959 Z
M708 945 L708 952 L713 956 L713 949 Z
M248 929 L247 929 L247 935 L246 936 L245 990 L249 990 L250 989 L250 950 L251 949 L251 934 L252 932 L250 933 Z
M169 700 L166 699 L154 699 L147 702 L139 696 L124 691 L116 691 L115 690 L102 691 L101 692 L98 692 L89 695 L79 701 L72 708 L66 718 L68 720 L64 723 L63 726 L63 730 L62 731 L62 742 L61 744 L62 745 L62 753 L63 754 L63 757 L64 758 L64 761 L67 770 L74 784 L82 796 L92 808 L109 824 L111 824 L113 821 L109 818 L89 797 L79 783 L71 767 L68 758 L67 748 L66 747 L66 735 L67 734 L67 729 L69 723 L75 712 L83 704 L97 697 L105 696 L106 695 L119 695 L120 696 L125 696 L134 699 L141 703 L143 706 L140 709 L140 711 L138 714 L138 717 L137 718 L137 729 L138 730 L138 734 L140 738 L140 741 L143 747 L142 748 L142 765 L143 766 L143 770 L147 779 L147 781 L149 781 L152 779 L150 776 L147 767 L147 744 L145 741 L143 735 L143 732 L142 731 L142 717 L144 712 L150 706 L157 703 L163 703 L170 706 L172 708 L180 724 L187 731 L190 727 L182 718 L175 704 Z
M825 663 L814 672 L803 686 L793 706 L796 705 L797 706 L796 709 L798 708 L799 704 L805 692 L811 683 L817 677 L817 676 L825 669 L843 659 L852 656 L855 656 L856 655 L864 655 L865 654 L868 655 L878 655 L879 656 L886 657 L898 661 L918 671 L933 681 L944 692 L951 704 L952 707 L952 715 L947 720 L942 722 L935 722 L934 721 L925 720 L913 716 L893 706 L891 704 L889 704 L886 696 L882 691 L871 683 L860 678 L859 679 L871 685 L883 695 L887 702 L887 709 L885 714 L881 718 L877 720 L869 721 L868 722 L856 722 L855 721 L850 721 L841 717 L839 717 L832 713 L829 714 L826 719 L827 720 L828 718 L832 715 L850 723 L850 742 L851 743 L851 747 L852 748 L853 755 L861 769 L868 775 L874 777 L876 779 L871 783 L874 783 L878 779 L883 779 L884 780 L898 779 L904 777 L911 773 L916 768 L920 762 L921 758 L923 755 L923 752 L925 747 L925 741 L926 740 L926 726 L927 725 L930 726 L945 726 L948 725 L953 721 L957 715 L957 707 L955 701 L947 688 L937 678 L929 672 L926 671 L919 666 L898 656 L889 653 L882 652 L881 651 L876 651 L875 650 L858 650 L857 651 L853 651 L852 652 L849 652 L843 654 Z
M890 709 L894 712 L908 719 L920 723 L921 724 L921 733 L923 733 L925 735 L925 744 L923 746 L920 745 L919 752 L915 761 L907 770 L902 773 L895 774 L894 775 L881 775 L875 773 L867 768 L860 759 L857 751 L855 752 L853 750 L853 746 L856 745 L855 744 L855 737 L854 736 L854 724 L855 723 L872 723 L873 722 L879 721 L883 719 L886 716 L888 710 Z
M167 526 L171 535 L171 537 L173 540 L173 542 L176 547 L176 549 L188 573 L208 605 L234 637 L251 654 L270 670 L282 679 L292 685 L295 688 L300 690 L307 695 L311 697 L312 696 L316 696 L317 697 L314 699 L336 710 L338 710 L343 713 L350 715 L355 718 L363 720 L366 722 L364 723 L368 722 L369 724 L371 723 L373 725 L376 725 L377 726 L383 726 L388 728 L404 730 L410 732 L416 732 L417 733 L423 733 L424 734 L430 734 L431 735 L438 735 L439 736 L446 736 L430 734 L429 733 L420 732 L415 730 L411 730 L410 729 L395 726 L353 712 L315 694 L313 692 L303 687 L295 681 L292 680 L274 667 L254 650 L238 634 L217 609 L200 584 L195 574 L193 572 L179 544 L179 542 L176 537 L176 535 L172 526 Z" fill="#465b61" fill-rule="evenodd"/>
  <path d="M252 940 L251 991 L276 993 L277 994 L285 994 L286 995 L295 995 L296 996 L304 996 L305 997 L325 998 L326 999 L347 1000 L348 1001 L374 1002 L375 1003 L390 1003 L391 1004 L408 1004 L409 1005 L433 1005 L433 1003 L435 1000 L436 1001 L442 1001 L443 1002 L450 1002 L452 1003 L465 997 L472 995 L477 992 L484 990 L489 987 L496 985 L501 982 L508 980 L501 981 L500 982 L495 982 L494 983 L480 984 L479 985 L469 985 L468 986 L412 986 L411 985 L399 985 L398 984 L388 984 L387 983 L379 983 L378 982 L370 982 L369 981 L355 980 L354 979 L349 979 L348 978 L343 978 L342 977 L328 975 L327 974 L316 972 L312 970 L309 970 L297 966 L289 962 L287 962 L282 959 L280 959 L278 957 L271 954 L267 951 L267 954 L265 957 L263 958 L259 958 L256 955 L256 943 Z
M713 932 L708 932 L708 942 L707 943 L704 939 L704 937 L702 936 L695 941 L668 954 L663 955 L660 957 L639 964 L636 964 L635 965 L632 965 L631 966 L628 966 L619 969 L615 969 L614 970 L610 970 L609 971 L605 971 L599 973 L594 973 L593 974 L588 974 L587 975 L573 976 L572 977 L564 977 L563 978 L552 978 L551 979 L517 979 L516 978 L513 978 L510 979 L517 981 L522 984 L529 986 L534 989 L536 989 L549 995 L557 994 L562 992 L566 992 L568 998 L565 1000 L562 1000 L563 1001 L565 1001 L573 1005 L580 1005 L581 1006 L584 1005 L630 1004 L631 1003 L645 1003 L646 1002 L659 1002 L660 1001 L672 1001 L673 1000 L684 1000 L685 999 L694 999 L695 998 L705 998 L707 997 L707 982 L706 981 L706 955 L707 954 L706 953 L707 952 L707 944 L708 943 L713 948 Z
M700 942 L705 949 L704 951 L701 948 L699 944 Z" fill="#acb7a4" fill-rule="evenodd"/>
  <path d="M767 524 L763 521 L752 532 L758 532 Z
M868 510 L864 510 L863 511 L860 519 L865 519 Z
M100 502 L102 510 L106 510 L107 511 L105 503 Z
M268 452 L268 473 L269 474 L271 484 L279 501 L289 516 L298 527 L307 536 L313 536 L298 520 L285 502 L277 487 L277 485 L274 479 L273 472 L272 471 L272 454 L273 453 L273 449 L276 440 L287 419 L299 400 L318 380 L318 379 L350 348 L384 320 L413 300 L447 281 L449 281 L462 274 L464 274 L471 270 L473 270 L478 267 L480 267 L493 261 L496 261 L506 257 L519 255 L520 254 L539 253 L540 254 L548 254 L549 255 L554 255 L555 256 L564 257 L569 259 L573 259 L577 261 L580 261 L598 267 L613 274 L615 274 L640 287 L669 306 L687 320 L701 333 L702 333 L741 373 L758 393 L761 398 L782 424 L786 431 L786 433 L790 442 L790 446 L791 447 L791 466 L790 467 L789 475 L785 487 L778 501 L770 513 L774 513 L777 511 L788 491 L788 489 L790 486 L793 477 L793 474 L795 469 L795 461 L796 460 L796 453 L795 452 L794 440 L790 431 L790 429 L784 419 L759 387 L753 381 L741 366 L714 338 L713 338 L694 320 L674 304 L667 300 L655 291 L652 290 L642 283 L635 280 L633 278 L611 267 L575 255 L571 255 L570 254 L567 254 L562 252 L552 251 L551 250 L545 250 L544 249 L526 249 L525 250 L518 250 L517 251 L508 252 L486 259 L478 263 L473 264 L426 287 L386 313 L364 330 L352 341 L347 344 L300 392 L291 404 L290 407 L283 417 L280 424 L278 426 L272 438 L269 447 L269 451 Z
M98 295 L98 298 L97 299 L97 302 L94 311 L91 330 L90 331 L88 350 L87 351 L86 371 L85 372 L85 398 L84 399 L84 409 L85 410 L85 429 L86 430 L87 448 L88 449 L89 460 L91 466 L91 471 L92 472 L92 475 L93 476 L93 479 L94 480 L94 483 L96 489 L97 490 L101 490 L100 489 L100 486 L99 485 L99 482 L98 481 L98 478 L95 469 L95 464 L94 463 L94 458 L93 457 L92 446 L91 445 L91 437 L90 436 L90 425 L89 424 L89 377 L90 376 L90 364 L91 363 L91 354 L92 353 L92 346 L93 345 L93 340 L94 339 L94 333 L95 332 L98 313 L99 312 L102 297 L104 293 L104 290 L108 280 L108 277 L110 271 L112 268 L113 263 L115 260 L116 255 L119 250 L121 243 L127 232 L127 230 L132 220 L134 218 L139 207 L141 205 L145 197 L158 177 L173 157 L183 145 L193 135 L193 134 L211 116 L212 116 L233 97 L250 84 L268 72 L271 71 L283 63 L292 59 L294 57 L336 38 L363 29 L366 29 L370 27 L373 27 L374 26 L377 26 L378 25 L381 25 L390 22 L394 22 L395 21 L399 21 L405 19 L410 19 L411 18 L417 18 L418 17 L427 17 L428 16 L437 16 L438 15 L449 15 L450 14 L509 14 L510 15 L524 15 L525 16 L535 16 L536 17 L555 18 L556 19 L562 19 L563 20 L574 21 L575 22 L594 25 L599 27 L603 27 L604 28 L615 30 L619 32 L626 33 L642 39 L645 39 L648 41 L666 47 L700 63 L702 65 L707 67 L720 76 L726 79 L761 107 L789 135 L810 160 L830 189 L838 204 L840 206 L852 230 L852 232 L860 249 L861 254 L863 257 L868 272 L870 282 L872 286 L872 289 L875 298 L875 302 L876 303 L876 307 L877 308 L877 312 L878 313 L878 317 L879 318 L879 324 L880 325 L880 330 L881 331 L881 339 L882 340 L882 349 L883 350 L883 365 L884 366 L883 412 L882 413 L882 423 L881 424 L881 431 L880 432 L880 438 L879 439 L879 445 L878 446 L877 457 L876 458 L874 472 L873 473 L873 476 L872 477 L872 480 L871 481 L871 484 L870 485 L870 488 L869 489 L869 492 L867 498 L872 497 L875 483 L876 482 L876 479 L877 478 L877 475 L878 474 L878 470 L879 469 L879 465 L880 464 L880 460 L882 454 L882 449 L883 448 L884 435 L885 434 L886 417 L887 416 L887 403 L888 402 L888 360 L887 359 L887 346 L886 345 L886 337 L885 336 L884 322 L883 321 L883 316 L882 315 L879 296 L878 295 L876 284 L874 280 L874 277 L872 273 L872 270 L868 258 L866 255 L865 250 L863 247 L859 235 L855 228 L855 226 L844 204 L842 202 L834 187 L811 154 L798 138 L786 126 L786 125 L761 101 L731 77 L702 59 L668 43 L666 43 L655 38 L628 29 L621 28 L617 26 L614 26 L613 25 L610 25 L601 22 L597 22 L592 20 L582 19 L576 17 L559 15 L558 14 L551 14 L550 13 L543 13 L542 12 L533 12 L532 11 L522 11 L521 10 L505 10 L504 9 L455 9 L454 10 L430 11 L429 12 L422 12 L421 13 L408 14 L407 15 L388 18 L387 19 L368 23 L364 25 L361 25 L354 28 L351 28 L348 30 L334 34 L324 39 L317 41 L292 53 L290 55 L281 59 L279 61 L266 68 L248 80 L227 96 L214 108 L213 108 L184 137 L184 138 L172 151 L156 172 L144 190 L136 205 L134 207 L130 216 L128 218 L112 253 Z" fill="#000000" fill-rule="evenodd"/>
  <path d="M600 419 L591 419 L587 421 L583 425 L581 429 L581 500 L583 504 L587 508 L592 510 L602 509 L607 505 L610 499 L610 430 L607 424 L604 421 Z
M510 419 L505 421 L500 426 L498 430 L498 499 L499 502 L503 507 L520 509 L525 505 L528 499 L528 430 L525 424 L521 421 L516 419 Z
M322 255 L315 262 L309 272 L307 278 L307 281 L306 282 L307 297 L311 309 L320 326 L330 340 L338 348 L339 348 L349 340 L336 328 L328 318 L322 307 L322 305 L319 300 L316 291 L316 271 L317 270 L317 267 L320 258 Z
M669 211 L653 209 L652 210 L648 210 L642 212 L632 218 L620 230 L614 238 L613 241 L609 246 L601 260 L604 262 L606 262 L609 264 L611 264 L620 268 L621 264 L629 247 L631 245 L637 234 L644 225 L655 216 L661 213 Z" fill="#007553" fill-rule="evenodd"/>
  <path d="M540 645 L540 650 L547 650 L548 649 L548 645 Z
M560 645 L560 649 L563 649 L564 648 L567 648 L567 645 L568 644 L561 644 Z
M500 642 L500 646 L501 647 L507 647 L510 648 L512 646 L515 645 L520 649 L528 649 L528 645 L520 645 L519 644 L511 644 L510 643 Z
M314 543 L327 556 L352 577 L371 590 L374 593 L377 594 L393 605 L400 608 L402 610 L419 619 L421 619 L434 626 L441 628 L446 631 L459 635 L465 638 L468 638 L475 641 L478 641 L479 642 L482 642 L488 644 L488 639 L485 639 L470 634 L467 634 L458 630 L453 629 L450 627 L448 627 L445 625 L443 625 L427 617 L425 617 L395 601 L358 576 L343 564 L321 544 L315 544 Z
M751 539 L743 540 L735 548 L700 577 L657 607 L642 615 L640 617 L616 629 L614 629 L604 634 L586 640 L579 641 L578 642 L579 643 L579 646 L585 644 L588 644 L606 638 L616 633 L618 633 L642 621 L644 619 L659 611 L686 593 L706 578 L735 554 Z
M863 524 L857 526 L856 531 L845 554 L845 556 L843 558 L836 573 L818 601 L805 618 L789 635 L789 636 L761 662 L747 673 L725 688 L693 705 L691 705 L679 711 L677 711 L674 713 L666 715 L663 717 L651 721 L648 721 L641 724 L630 726 L626 728 L622 728 L617 730 L609 731 L613 735 L619 734 L620 733 L624 733 L625 732 L636 730 L640 728 L643 728 L647 726 L650 726 L668 720 L671 718 L676 717 L689 711 L691 711 L726 693 L729 690 L738 685 L762 667 L774 657 L799 632 L820 606 L834 585 L835 582 L840 575 L847 560 L849 558 L849 556 L858 538 L859 533 Z
M105 516 L105 518 L107 521 L111 533 L124 559 L126 561 L131 571 L139 582 L140 585 L154 604 L160 610 L166 618 L199 650 L228 672 L249 685 L276 699 L278 699 L283 702 L285 702 L290 705 L305 710 L308 712 L332 720 L335 720 L346 724 L349 724 L350 725 L353 725 L354 726 L357 726 L358 727 L361 727 L362 728 L365 728 L374 731 L378 731 L379 732 L383 732 L384 733 L388 733 L389 734 L393 734 L399 736 L410 737 L411 738 L417 738 L418 739 L431 740 L432 741 L439 741 L440 742 L449 742 L450 743 L481 745 L485 742 L481 740 L470 740 L469 739 L448 738 L447 737 L439 737 L438 736 L431 736 L430 735 L410 733 L409 732 L393 730 L392 729 L388 729 L383 727 L377 727 L368 724 L364 724 L363 723 L356 722 L352 720 L338 717 L305 706 L302 704 L290 700 L285 697 L283 697 L276 693 L274 693 L251 681 L241 674 L233 670 L200 645 L189 634 L188 634 L166 611 L147 587 L132 564 L115 531 L115 529 L113 526 L110 517 Z" fill="#233c43" fill-rule="evenodd"/>
  <path d="M642 894 L644 901 L650 911 L660 920 L669 925 L673 926 L673 885 L656 891 Z
M713 867 L705 872 L703 872 L692 878 L690 878 L677 884 L677 928 L683 929 L684 930 L689 930 L690 931 L697 931 L702 928 L702 924 L706 915 L714 908 L712 910 L711 909 L712 896 L713 895 L713 878 L714 877 Z
M671 851 L659 857 L654 861 L648 868 L644 875 L642 881 L642 890 L652 888 L659 885 L662 885 L671 882 L673 880 L672 879 Z
M721 847 L719 847 L720 849 L720 854 L721 851 L723 849 L723 848 Z
M712 846 L711 845 L691 845 L690 846 L685 846 L684 847 L681 847 L675 849 L676 877 L677 879 L679 879 L694 872 L696 872 L713 863 L713 851 L712 850 Z
M581 742 L579 743 L572 743 L571 744 L568 743 L557 757 L563 758 Z" fill="#a9d5e6" fill-rule="evenodd"/>
  <path d="M781 920 L778 916 L769 916 L768 915 L763 915 L762 914 L758 914 L754 912 L751 912 L749 915 L737 924 L722 930 L715 931 L715 950 L724 955 L727 955 L731 957 L736 957 L737 958 L748 958 L749 957 L754 957 L755 956 L761 955 L769 951 L778 943 L782 934 L782 923 Z
M721 888 L719 904 L730 900 L724 894 Z" fill="#e9f6f9" fill-rule="evenodd"/>
  <path d="M456 502 L460 505 L464 505 L464 504 L467 502 L470 504 L479 507 L486 508 L490 510 L500 511 L501 512 L507 512 L508 513 L516 513 L517 514 L545 515 L546 516 L590 516 L591 515 L599 515 L600 514 L606 514 L607 513 L616 512 L628 508 L634 503 L635 495 L634 493 L632 492 L631 493 L631 498 L626 503 L618 507 L615 507 L611 509 L599 510 L598 511 L589 511 L588 512 L540 512 L539 511 L525 511 L524 510 L513 510 L512 509 L497 508 L496 507 L487 506 L486 505 L483 505 L482 504 L479 504 L478 503 L475 503 L469 501 L467 499 L468 493 L466 492 L462 492 Z
M489 388 L489 392 L527 421 L530 422 L534 421 L535 419 L534 412 L529 407 L495 385 L492 385 Z
M614 388 L610 384 L606 384 L584 401 L577 408 L576 410 L576 417 L578 419 L583 419 L607 396 L608 396 L614 390 Z" fill="#cc9b10" fill-rule="evenodd"/>
  <path d="M496 747 L520 762 L522 762 L525 759 L531 756 L536 755 L527 747 Z
M576 735 L586 734 L588 733 L582 730 L580 730 Z
M518 739 L496 722 L498 720 L501 719 L489 725 L477 735 L478 737 L482 739 Z" fill="#e9f5f6" fill-rule="evenodd"/>
  <path d="M751 911 L744 909 L737 905 L725 894 L731 900 L728 902 L719 905 L717 921 L715 924 L715 930 L722 929 L737 923 L749 914 Z
M200 727 L200 731 L201 731 L201 727 Z" fill="#f3f9fb" fill-rule="evenodd"/>
  <path d="M702 929 L698 931 L702 931 Z
M649 860 L644 865 L645 866 L650 861 Z
M717 846 L713 846 L712 845 L714 851 L714 863 L696 873 L694 873 L679 880 L677 880 L675 877 L674 849 L671 850 L672 851 L673 879 L674 880 L671 883 L662 886 L659 886 L652 889 L645 890 L644 891 L641 890 L641 885 L642 893 L656 890 L672 884 L674 885 L674 926 L673 927 L676 927 L676 884 L680 881 L685 880 L703 871 L705 871 L713 866 L715 872 L715 877 L714 878 L714 895 L713 896 L712 909 L717 905 L718 903 L718 895 L719 894 L719 884 L716 875 L716 867 L720 855 L719 854 L719 849 Z" fill="#92bdcf" fill-rule="evenodd"/>
  <path d="M485 741 L487 741 L493 745 L525 745 L520 741 Z
M590 734 L585 736 L574 737 L570 742 L582 741 Z" fill="#909ca0" fill-rule="evenodd"/>
  <path d="M276 726 L277 728 L278 727 L280 730 L281 729 L283 732 L284 731 L288 736 L289 735 L291 738 L306 752 L305 753 L309 756 L308 757 L312 760 L311 761 L314 763 L311 761 L312 760 L309 758 L310 757 L305 753 L306 752 L297 744 L298 743 L297 744 L289 735 L288 736 L284 731 L283 732 L281 729 L280 730 L278 727 L277 728 Z
M257 718 L256 718 L251 724 L250 723 L247 727 L246 726 L242 731 L241 730 L235 737 L234 736 L222 748 L223 748 L234 736 L235 737 L240 731 L241 732 L246 726 L247 727 L250 723 L251 724 L254 720 L255 721 L256 720 L255 719 Z
M237 716 L239 717 L243 717 L244 716 Z" fill="#2a80a4" fill-rule="evenodd"/>
</svg>
