<?xml version="1.0" encoding="UTF-8"?>
<svg xmlns="http://www.w3.org/2000/svg" viewBox="0 0 1521 671" width="1521" height="671" preserveAspectRatio="xMidYMid meet" role="img" aria-label="MasterLion 英文顺序手写 Loading 动画" shape-rendering="geometricPrecision">
  <title>MasterLion 英文顺序手写 Loading 动画 - 中性灰</title>
  <desc>Text-only SVG loading animation. English is written in letter order; Chinese is written by character/stroke order. No logo is included. Visible text uses neutral gray #767676. Transparent background; no logo is included.</desc>
  <defs>
    <mask id="handwrite-mask" maskUnits="userSpaceOnUse" x="0" y="0" width="1521" height="671">
      <g class="ordered-strokes" fill="none" stroke="#fff" stroke-width="103" stroke-linecap="round" stroke-linejoin="round">
        <!-- 01. M 起笔 -->
        <path d="M25 627L24 619L41 559L74 463L115 366L150 297L196 218L254 136L286 124" pathLength="1" stroke-dasharray="1" stroke-dashoffset="0">
          <animate attributeName="stroke-dashoffset" dur="2.40s" repeatCount="indefinite" calcMode="linear" values="1;1;0;0;1" keyTimes="0;0.023;0.106;0.840;1"/>
        </path>
        <!-- 02. M 左竖/回笔 -->
        <path d="M228 432L220 424L223 385L247 289L285 167L290 130L287 124" pathLength="1" stroke-dasharray="1" stroke-dashoffset="0">
          <animate attributeName="stroke-dashoffset" dur="2.40s" repeatCount="indefinite" calcMode="linear" values="1;1;0;0;1" keyTimes="0;0.094;0.146;0.840;1"/>
        </path>
        <!-- 03. M 连接 -->
        <path d="M213 479L215 467L228 432" pathLength="1" stroke-dasharray="1" stroke-dashoffset="0">
          <animate attributeName="stroke-dashoffset" dur="2.40s" repeatCount="indefinite" calcMode="linear" values="1;1;0;0;1" keyTimes="0;0.134;0.152;0.840;1"/>
        </path>
        <!-- 04. M 右上笔 -->
        <path d="M228 432L257 417L318 306L390 195L410 171L442 159" pathLength="1" stroke-dasharray="1" stroke-dashoffset="0">
          <animate attributeName="stroke-dashoffset" dur="2.40s" repeatCount="indefinite" calcMode="linear" values="1;1;0;0;1" keyTimes="0;0.140;0.196;0.840;1"/>
        </path>
        <!-- 05. M 顶部收笔 -->
        <path d="M287 123L297 106" pathLength="1" stroke-dasharray="1" stroke-dashoffset="0">
          <animate attributeName="stroke-dashoffset" dur="2.40s" repeatCount="indefinite" calcMode="linear" values="1;1;0;0;1" keyTimes="0;0.184;0.200;0.840;1"/>
        </path>
        <!-- 06. M 下行收笔 -->
        <path d="M442 159L444 167L438 201L397 304L369 400L359 467L364 496L370 504L381 508L408 503L429 489L459 452" pathLength="1" stroke-dasharray="1" stroke-dashoffset="0">
          <animate attributeName="stroke-dashoffset" dur="2.40s" repeatCount="indefinite" calcMode="linear" values="1;1;0;0;1" keyTimes="0;0.188;0.259;0.840;1"/>
        </path>
        <!-- 07. M 入 a 连接 -->
        <path d="M442 159L466 121L467 114" pathLength="1" stroke-dasharray="1" stroke-dashoffset="0">
          <animate attributeName="stroke-dashoffset" dur="2.40s" repeatCount="indefinite" calcMode="linear" values="1;1;0;0;1" keyTimes="0;0.247;0.265;0.840;1"/>
        </path>
        <!-- 08. a 圆身 -->
        <path d="M520 349L492 361L477 382L449 392L443 388L449 351L462 325L489 288L502 275L516 270L530 274L542 289L539 306L521 348" pathLength="1" stroke-dasharray="1" stroke-dashoffset="0">
          <animate attributeName="stroke-dashoffset" dur="2.40s" repeatCount="indefinite" calcMode="linear" values="1;1;0;0;1" keyTimes="0;0.253;0.306;0.840;1"/>
        </path>
        <!-- 09. a 出笔 -->
        <path d="M522 349L526 353L527 370L532 383L542 385L559 380L579 360L609 314L626 304" pathLength="1" stroke-dasharray="1" stroke-dashoffset="0">
          <animate attributeName="stroke-dashoffset" dur="2.40s" repeatCount="indefinite" calcMode="linear" values="1;1;0;0;1" keyTimes="0;0.294;0.327;0.840;1"/>
        </path>
        <!-- 10. s 下弯 -->
        <path d="M627 303L632 263L649 243L668 232L679 230L696 235L700 242L699 248" pathLength="1" stroke-dasharray="1" stroke-dashoffset="0">
          <animate attributeName="stroke-dashoffset" dur="2.40s" repeatCount="indefinite" calcMode="linear" values="1;1;0;0;1" keyTimes="0;0.315;0.343;0.840;1"/>
        </path>
        <!-- 11. s 入笔 -->
        <path d="M628 304L637 310L649 337L654 342" pathLength="1" stroke-dasharray="1" stroke-dashoffset="0">
          <animate attributeName="stroke-dashoffset" dur="2.40s" repeatCount="indefinite" calcMode="linear" values="1;1;0;0;1" keyTimes="0;0.331;0.349;0.840;1"/>
        </path>
        <!-- 12. s 回环 -->
        <path d="M654 368L625 379L600 405L586 428L584 444L587 449L613 449L628 440L639 428L652 405L655 368" pathLength="1" stroke-dasharray="1" stroke-dashoffset="0">
          <animate attributeName="stroke-dashoffset" dur="2.40s" repeatCount="indefinite" calcMode="linear" values="1;1;0;0;1" keyTimes="0;0.337;0.378;0.840;1"/>
        </path>
        <!-- 13. s 出笔 -->
        <path d="M656 342L663 335L676 332L703 308L729 300L732 301" pathLength="1" stroke-dasharray="1" stroke-dashoffset="0">
          <animate attributeName="stroke-dashoffset" dur="2.40s" repeatCount="indefinite" calcMode="linear" values="1;1;0;0;1" keyTimes="0;0.366;0.389;0.840;1"/>
        </path>
        <!-- 14. 连接到 t -->
        <path d="M732 302L729 334L717 388L716 412L720 425L746 420L773 389L793 356L816 344" pathLength="1" stroke-dasharray="1" stroke-dashoffset="0">
          <animate attributeName="stroke-dashoffset" dur="2.40s" repeatCount="indefinite" calcMode="linear" values="1;1;0;0;1" keyTimes="0;0.377;0.421;0.840;1"/>
        </path>
        <!-- 15. t 下行主笔 -->
        <path d="M733 301L744 283L763 229L786 176L792 142" pathLength="1" stroke-dasharray="1" stroke-dashoffset="0">
          <animate attributeName="stroke-dashoffset" dur="2.40s" repeatCount="indefinite" calcMode="linear" values="1;1;0;0;1" keyTimes="0;0.409;0.442;0.840;1"/>
        </path>
        <!-- 16. t 上接 -->
        <path d="M792 142L820 121" pathLength="1" stroke-dasharray="1" stroke-dashoffset="0">
          <animate attributeName="stroke-dashoffset" dur="2.40s" repeatCount="indefinite" calcMode="linear" values="1;1;0;0;1" keyTimes="0;0.430;0.446;0.840;1"/>
        </path>
        <!-- 17. t 顶部起势 -->
        <path d="M821 120L827 90L853 47" pathLength="1" stroke-dasharray="1" stroke-dashoffset="0">
          <animate attributeName="stroke-dashoffset" dur="2.40s" repeatCount="indefinite" calcMode="linear" values="1;1;0;0;1" keyTimes="0;0.434;0.456;0.840;1"/>
        </path>
        <!-- 18. t 横（一） -->
        <path d="M632 184L668 169L743 147L772 142L792 142" pathLength="1" stroke-dasharray="1" stroke-dashoffset="0">
          <animate attributeName="stroke-dashoffset" dur="2.40s" repeatCount="indefinite" calcMode="linear" values="1;1;0;0;1" keyTimes="0;0.444;0.477;0.840;1"/>
        </path>
        <!-- 19. t 横（二） -->
        <path d="M821 121L824 124L854 121L937 104L1024 92L1100 85L1130 86" pathLength="1" stroke-dasharray="1" stroke-dashoffset="0">
          <animate attributeName="stroke-dashoffset" dur="2.40s" repeatCount="indefinite" calcMode="linear" values="1;1;0;0;1" keyTimes="0;0.465;0.515;0.840;1"/>
        </path>
        <!-- 20. e 入笔 -->
        <path d="M817 343L822 302L841 282" pathLength="1" stroke-dasharray="1" stroke-dashoffset="0">
          <animate attributeName="stroke-dashoffset" dur="2.40s" repeatCount="indefinite" calcMode="linear" values="1;1;0;0;1" keyTimes="0;0.503;0.524;0.840;1"/>
        </path>
        <!-- 21. e 圆身 -->
        <path d="M841 281L850 244L870 222L891 217L898 219L900 229L895 250L877 272L842 282" pathLength="1" stroke-dasharray="1" stroke-dashoffset="0">
          <animate attributeName="stroke-dashoffset" dur="2.40s" repeatCount="indefinite" calcMode="linear" values="1;1;0;0;1" keyTimes="0;0.512;0.548;0.840;1"/>
        </path>
        <!-- 22. e 出笔 -->
        <path d="M817 344L823 357L827 361L835 363L861 360L878 349L904 323L942 270L945 256L955 243" pathLength="1" stroke-dasharray="1" stroke-dashoffset="0">
          <animate attributeName="stroke-dashoffset" dur="2.40s" repeatCount="indefinite" calcMode="linear" values="1;1;0;0;1" keyTimes="0;0.536;0.573;0.840;1"/>
        </path>
        <!-- 23. r 上挑 -->
        <path d="M956 242L962 212L984 179" pathLength="1" stroke-dasharray="1" stroke-dashoffset="0">
          <animate attributeName="stroke-dashoffset" dur="2.40s" repeatCount="indefinite" calcMode="linear" values="1;1;0;0;1" keyTimes="0;0.561;0.582;0.840;1"/>
        </path>
        <!-- 24. r 肩部 -->
        <path d="M956 243L960 247L1001 248" pathLength="1" stroke-dasharray="1" stroke-dashoffset="0">
          <animate attributeName="stroke-dashoffset" dur="2.40s" repeatCount="indefinite" calcMode="linear" values="1;1;0;0;1" keyTimes="0;0.570;0.588;0.840;1"/>
        </path>
        <!-- 25. r 下行收笔 -->
        <path d="M1002 249L996 279L974 331L971 351L972 365L980 369L1003 362L1034 323L1059 313" pathLength="1" stroke-dasharray="1" stroke-dashoffset="0">
          <animate attributeName="stroke-dashoffset" dur="2.40s" repeatCount="indefinite" calcMode="linear" values="1;1;0;0;1" keyTimes="0;0.576;0.616;0.840;1"/>
        </path>
        <!-- 26. L 入笔 -->
        <path d="M1060 312L1073 267L1084 245L1095 239" pathLength="1" stroke-dasharray="1" stroke-dashoffset="0">
          <animate attributeName="stroke-dashoffset" dur="2.40s" repeatCount="indefinite" calcMode="linear" values="1;1;0;0;1" keyTimes="0;0.604;0.626;0.840;1"/>
        </path>
        <!-- 27. L 下弯 -->
        <path d="M1060 313L1065 319L1068 330L1080 332L1099 327L1114 312L1132 284L1139 252" pathLength="1" stroke-dasharray="1" stroke-dashoffset="0">
          <animate attributeName="stroke-dashoffset" dur="2.40s" repeatCount="indefinite" calcMode="linear" values="1;1;0;0;1" keyTimes="0;0.614;0.643;0.840;1"/>
        </path>
        <!-- 28. L 上环 -->
        <path d="M1096 238L1103 215L1115 200L1128 194L1145 200L1151 236" pathLength="1" stroke-dasharray="1" stroke-dashoffset="0">
          <animate attributeName="stroke-dashoffset" dur="2.40s" repeatCount="indefinite" calcMode="linear" values="1;1;0;0;1" keyTimes="0;0.631;0.657;0.840;1"/>
        </path>
        <!-- 29. L 中连 -->
        <path d="M1096 239L1103 246L1137 249L1139 251" pathLength="1" stroke-dasharray="1" stroke-dashoffset="0">
          <animate attributeName="stroke-dashoffset" dur="2.40s" repeatCount="indefinite" calcMode="linear" values="1;1;0;0;1" keyTimes="0;0.645;0.663;0.840;1"/>
        </path>
        <!-- 30. L 收笔 -->
        <path d="M1140 251L1146 246L1151 237" pathLength="1" stroke-dasharray="1" stroke-dashoffset="0">
          <animate attributeName="stroke-dashoffset" dur="2.40s" repeatCount="indefinite" calcMode="linear" values="1;1;0;0;1" keyTimes="0;0.651;0.667;0.840;1"/>
        </path>
        <!-- 31. i 入笔 -->
        <path d="M1152 236L1182 234L1190 231L1196 233" pathLength="1" stroke-dasharray="1" stroke-dashoffset="0">
          <animate attributeName="stroke-dashoffset" dur="2.40s" repeatCount="indefinite" calcMode="linear" values="1;1;0;0;1" keyTimes="0;0.655;0.673;0.840;1"/>
        </path>
        <!-- 32. i 主笔 -->
        <path d="M1196 234L1190 282L1190 295L1194 304L1203 305L1220 300L1234 287L1271 275" pathLength="1" stroke-dasharray="1" stroke-dashoffset="0">
          <animate attributeName="stroke-dashoffset" dur="2.40s" repeatCount="indefinite" calcMode="linear" values="1;1;0;0;1" keyTimes="0;0.661;0.692;0.840;1"/>
        </path>
        <!-- 33. i 出笔 -->
        <path d="M1197 233L1217 203" pathLength="1" stroke-dasharray="1" stroke-dashoffset="0">
          <animate attributeName="stroke-dashoffset" dur="2.40s" repeatCount="indefinite" calcMode="linear" values="1;1;0;0;1" keyTimes="0;0.680;0.696;0.840;1"/>
        </path>
        <!-- 34. o 入笔 -->
        <path d="M1267 302L1272 276" pathLength="1" stroke-dasharray="1" stroke-dashoffset="0">
          <animate attributeName="stroke-dashoffset" dur="2.40s" repeatCount="indefinite" calcMode="linear" values="1;1;0;0;1" keyTimes="0;0.684;0.701;0.840;1"/>
        </path>
        <!-- 35. o 上弯 -->
        <path d="M1272 275L1298 236" pathLength="1" stroke-dasharray="1" stroke-dashoffset="0">
          <animate attributeName="stroke-dashoffset" dur="2.40s" repeatCount="indefinite" calcMode="linear" values="1;1;0;0;1" keyTimes="0;0.689;0.707;0.840;1"/>
        </path>
        <!-- 36. o 圆身 -->
        <path d="M1298 235L1296 232L1302 200L1308 185" pathLength="1" stroke-dasharray="1" stroke-dashoffset="0">
          <animate attributeName="stroke-dashoffset" dur="2.40s" repeatCount="indefinite" calcMode="linear" values="1;1;0;0;1" keyTimes="0;0.695;0.713;0.840;1"/>
        </path>
        <!-- 37. n 入笔 -->
        <path d="M1299 235L1332 222L1359 189L1391 178" pathLength="1" stroke-dasharray="1" stroke-dashoffset="0">
          <animate attributeName="stroke-dashoffset" dur="2.40s" repeatCount="indefinite" calcMode="linear" values="1;1;0;0;1" keyTimes="0;0.701;0.727;0.840;1"/>
        </path>
        <!-- 38. n 收笔 -->
        <path d="M1391 178L1393 181L1388 215L1374 269L1377 286L1386 290L1409 286L1424 276L1453 244L1489 190" pathLength="1" stroke-dasharray="1" stroke-dashoffset="0">
          <animate attributeName="stroke-dashoffset" dur="2.40s" repeatCount="indefinite" calcMode="linear" values="1;1;0;0;1" keyTimes="0;0.715;0.760;0.840;1"/>
        </path>
        <!-- 39. i 点 -->
        <path d="M1229 151L1267 107L1285 93" pathLength="1" stroke-dasharray="1" stroke-dashoffset="0">
          <animate attributeName="stroke-dashoffset" dur="2.40s" repeatCount="indefinite" calcMode="linear" values="1;1;0;0;1" keyTimes="0;0.748;0.770;0.840;1"/>
        </path>
      </g>
      <!-- Safety reveal: keeps the completed wordmark perfectly filled after the ordered strokes finish. -->
      <path class="completed-fill" fill="#fff" fill-rule="evenodd" d="M605 468.09L589 468.3L583 466.49L576 462.26L570.6 456L568.46 451L567.52 438L573.78 420L586.59 401L604.54 380L634 350.87L634 346.26L621 320.63L608.46 342L587.43 374L573.8 390L559 402.41L551 406.45L540 407.76L531 406.38L522 402.27L514.61 396L509.71 388L507.5 380L507 367.54L490.28 393L475 410.94L461 421.26L451 424.45L439 423.3L431 419.46L424.73 413L421.6 407L419.69 400L419.55 383L422.73 366L427.69 351L437.58 330L459.61 295L469.62 283L489 263.65L499 256.48L511 251.7L522 250.89L531 252.66L536.2 256L543 266.39L553 265.51L562 268.53L567.37 274L570.11 282L568.42 292L547.87 350L545.45 363L545.51 367L547 368.09L557 360.06L570.2 346L590 320L607.14 294L608.48 290L608.63 275L610.74 265L616.65 252L624.63 241L640 226.63L655 217.7L668 213.58L687 213.55L698 217.53L704.25 223L707.32 228L709.33 236L709.49 242L706.31 252L702.8 256L699 257.46L694 254.72L691.34 248L689 245.67L679 247.74L669 252.65L658 260.65L650.77 269L646.8 277L646.06 283L647.76 289L659.75 314L666 323.37L716 280.29L728.05 268L753.52 203L772.09 160L770 159.68L729 169.87L654 192.26L636 196.49L627 196.29L620.57 193L618 185L619.62 176L624 170.59L635 163.49L663 152.55L729 132.55L791 117.21L814.67 72L827.79 50L839 36.58L848 30.67L855 29.77L864 32.74L868.31 39L868.78 47L867.39 54L862.16 67L841 106.61L938 89.68L1060 76.87L1110 75.46L1130 76.51L1134 77.68L1137.68 81L1138.84 88L1137 91L1132 93.32L1084 97.84L1028 104.76L972 113.7L892 129.73L830 143.82L822 146.71L818.84 150L806.7 175L776.67 247L760.81 293L740.72 362L735.67 389L735 410.43L746 400.65L761.17 383L795 332.79L797.32 328L802.65 298L810.55 276L829.65 241L847.81 218L861 206.51L873 199.53L886 195.72L897 195.52L908 198.72L915.33 205L919.31 213L920.67 225L919.32 236L914.31 250L907.34 261L896.36 274L881 290.43L867 302.35L850 313.52L838.78 318L836.69 330L836.84 340L839 345.75L844 347.87L852 346L861 341.22L880 326.32L895.22 311L924.24 274L934.35 259L929.67 248L928.44 241L928.82 232L932.49 220L940.65 205L960.7 176L969 167.67L976 163.55L985 162.17L993 163.7L998.38 169L1000.16 175L999.32 184L995.27 196L977 231.48L995 221.54L1002 219.59L1013 219L1020 220.67L1026.3 225L1030.08 231L1031.6 238L1031.4 246L1029.4 254L1002.76 309L992.77 335L989.85 345L989 352.51L1004.08 337L1039.17 290L1050.26 271L1062.76 244L1081.58 213L1090.61 201L1102 188.65L1110 182.61L1119 178.59L1127 177.33L1135 177.74L1143 180.57L1150.47 186L1156.28 193L1161.5 204L1164 221.75L1168 220.15L1187.41 206L1203 188.53L1209 184.48L1214 183.39L1224 184.58L1229 186.89L1232.41 190L1235.14 197L1234.42 207L1211.64 269L1208.74 281L1209 288.2L1214.46 285L1231 268.91L1253.26 241L1270 217L1291.63 173L1297.34 166L1302 162.75L1309 162.46L1319 165.64L1323.55 170L1326.25 176L1326.26 189L1317 216.77L1339.44 187L1366 159.51L1378 149.55L1387 145.52L1398 144.53L1408 147.54L1414.42 153L1418.32 161L1419.36 167L1418.39 182L1415.26 195L1394.77 257L1392.72 270L1394 273.05L1401 271.41L1407 268.37L1426 252.84L1450.11 227L1482 184.65L1489 181.44L1492.93 183L1494.6 186L1494.3 195L1486.49 214L1455.39 263L1429 293.37L1414 305.39L1402 311.33L1394 313.33L1386 313.61L1379 312.43L1372 309.52L1361.53 301L1355.7 288L1354.31 273L1355.63 256L1359.65 240L1374 196.29L1354.84 218L1333.83 246L1302.7 292L1287.3 317L1282.86 322L1276 327.07L1268 329.21L1262 328.35L1257 326.33L1251.53 322L1248.68 318L1246.62 312L1247 295.41L1231 313.58L1223 320.46L1214 325.33L1205 328.38L1196 328.76L1188 327.21L1180.32 323L1175.52 318L1171.56 311L1168.46 296L1169.52 277L1177.38 248L1177 246.28L1162 253.88L1159 256.57L1148.3 285L1136.25 307L1121.38 327L1110 338.41L1103 343.4L1093 348.34L1086 350.4L1075 351.29L1065 349.46L1058 346.31L1050.69 340L1046 332.78L1029.39 357L1011 378L997 388.27L985 392.31L973 392.22L961 387.27L952.55 378L949.68 370L949.67 352L953.5 334L962.52 309L982.75 264L970 267.37L957 268.69L927.43 315L904.65 344L883 365.26L873 372.26L861 378.32L850 381.39L837 382.4L828 381.14L818 377.45L809.64 371L803 361.66L781.44 398L756 430.64L742 442.33L734 446.48L726 448.25L713 446.47L704.17 440L698.63 430L696.59 420L696.61 400L699.72 377L714 314.57L675.53 349L677.43 367L676.41 393L672.17 409L661.49 430L647.26 447L637 455.34L622 463.33ZM27 645.16L21 645.17L15 642.49L11.64 639L8.68 633L7.46 620L9.66 604L31.83 523L45.61 483L69.66 420L111.59 329L157.57 244L168.51 226L225.5 142L249.55 112L276 84.64L282 80.48L289 77.62L298 76.35L308 77.54L316 82.15L319.25 86L321.3 91L322.33 108L319.42 123L302.43 179L281.66 240L264.67 298L245.75 373L238.65 407L239 409.64L272.68 348L331.66 250L365.64 199L378.59 182L428.74 119L448 99.89L458 93.73L467 91.65L477 93.56L482 96.92L487.56 104L490.3 113L490.36 121L487.3 135L437.77 252L412.64 321L398.78 365L391.7 392L383.7 428L379.72 455L379.32 475L381 485.69L382.69 489L386 491.36L395 491.49L405 488.31L416 482.27L434 467.39L452.19 447L457 443.65L461 443.74L465.7 449L466.46 453L465.39 457L452.5 479L441.17 494L420 513.49L406 521.4L392 525.46L384 526.32L373 525.44L360 520.44L349.55 511L344.66 503L341.7 495L338.46 476L338.55 457L340.71 441L357.59 364L386.62 275L396.58 248L427 174.9L383.75 235L331.8 319L303.72 369L254.45 463L236.45 493L227 502.51L217 506.52L210 506.28L203 504.46L198 501.46L192.87 495L189.55 485L189.65 468L193.63 438L204.72 380L230.63 278L261.34 176L269.19 148L269 145.51L245.72 177L208.76 234L177.63 288L142.75 356L113.77 420L96.68 461L77.85 511L56.82 575L40.38 633L35 641.3ZM1231 165.14L1224 164.18L1220 161.25L1216.69 156L1215.52 151L1216.59 143L1227.72 125L1250 102.51L1268 88.66L1281 82.49L1286 81.86L1292 83.57L1295.31 87L1296.47 90L1296.28 96L1294.35 100L1282.94 112L1245 157L1240 161.45ZM1123 236L1133 234.46L1134.41 233L1136.3 220L1135.37 210L1134 207.92L1124 217.34L1115 232L1115 235.23ZM858.34 268L878.2 246L885.23 234L886 230.37L867.73 252ZM1084.6 317L1093 311.26L1106.09 296L1118.37 277L1124 263.2L1111 261.37L1101 256.49L1099.63 257L1090.73 277L1084.71 295L1081.64 313L1082.45 317ZM463.07 374L475.24 358L517.1 295L522 285.72L517 286.63L509 292.9L491.71 314L472.73 347L466.71 361ZM598.54 437L614 427.16L625.33 415L633.18 400L637.34 387L637 385.16L618.74 404L609.75 415L598.92 432L596.75 437Z" opacity="1">
        <animate attributeName="opacity" dur="2.40s" repeatCount="indefinite" values="0;0;1;1;0" keyTimes="0;0.785;0.825;0.840;1"/>
      </path>
    </mask>
  </defs>
  <g mask="url(#handwrite-mask)"><path fill="#767676" fill-rule="evenodd" d="M605 468.09L589 468.3L583 466.49L576 462.26L570.6 456L568.46 451L567.52 438L573.78 420L586.59 401L604.54 380L634 350.87L634 346.26L621 320.63L608.46 342L587.43 374L573.8 390L559 402.41L551 406.45L540 407.76L531 406.38L522 402.27L514.61 396L509.71 388L507.5 380L507 367.54L490.28 393L475 410.94L461 421.26L451 424.45L439 423.3L431 419.46L424.73 413L421.6 407L419.69 400L419.55 383L422.73 366L427.69 351L437.58 330L459.61 295L469.62 283L489 263.65L499 256.48L511 251.7L522 250.89L531 252.66L536.2 256L543 266.39L553 265.51L562 268.53L567.37 274L570.11 282L568.42 292L547.87 350L545.45 363L545.51 367L547 368.09L557 360.06L570.2 346L590 320L607.14 294L608.48 290L608.63 275L610.74 265L616.65 252L624.63 241L640 226.63L655 217.7L668 213.58L687 213.55L698 217.53L704.25 223L707.32 228L709.33 236L709.49 242L706.31 252L702.8 256L699 257.46L694 254.72L691.34 248L689 245.67L679 247.74L669 252.65L658 260.65L650.77 269L646.8 277L646.06 283L647.76 289L659.75 314L666 323.37L716 280.29L728.05 268L753.52 203L772.09 160L770 159.68L729 169.87L654 192.26L636 196.49L627 196.29L620.57 193L618 185L619.62 176L624 170.59L635 163.49L663 152.55L729 132.55L791 117.21L814.67 72L827.79 50L839 36.58L848 30.67L855 29.77L864 32.74L868.31 39L868.78 47L867.39 54L862.16 67L841 106.61L938 89.68L1060 76.87L1110 75.46L1130 76.51L1134 77.68L1137.68 81L1138.84 88L1137 91L1132 93.32L1084 97.84L1028 104.76L972 113.7L892 129.73L830 143.82L822 146.71L818.84 150L806.7 175L776.67 247L760.81 293L740.72 362L735.67 389L735 410.43L746 400.65L761.17 383L795 332.79L797.32 328L802.65 298L810.55 276L829.65 241L847.81 218L861 206.51L873 199.53L886 195.72L897 195.52L908 198.72L915.33 205L919.31 213L920.67 225L919.32 236L914.31 250L907.34 261L896.36 274L881 290.43L867 302.35L850 313.52L838.78 318L836.69 330L836.84 340L839 345.75L844 347.87L852 346L861 341.22L880 326.32L895.22 311L924.24 274L934.35 259L929.67 248L928.44 241L928.82 232L932.49 220L940.65 205L960.7 176L969 167.67L976 163.55L985 162.17L993 163.7L998.38 169L1000.16 175L999.32 184L995.27 196L977 231.48L995 221.54L1002 219.59L1013 219L1020 220.67L1026.3 225L1030.08 231L1031.6 238L1031.4 246L1029.4 254L1002.76 309L992.77 335L989.85 345L989 352.51L1004.08 337L1039.17 290L1050.26 271L1062.76 244L1081.58 213L1090.61 201L1102 188.65L1110 182.61L1119 178.59L1127 177.33L1135 177.74L1143 180.57L1150.47 186L1156.28 193L1161.5 204L1164 221.75L1168 220.15L1187.41 206L1203 188.53L1209 184.48L1214 183.39L1224 184.58L1229 186.89L1232.41 190L1235.14 197L1234.42 207L1211.64 269L1208.74 281L1209 288.2L1214.46 285L1231 268.91L1253.26 241L1270 217L1291.63 173L1297.34 166L1302 162.75L1309 162.46L1319 165.64L1323.55 170L1326.25 176L1326.26 189L1317 216.77L1339.44 187L1366 159.51L1378 149.55L1387 145.52L1398 144.53L1408 147.54L1414.42 153L1418.32 161L1419.36 167L1418.39 182L1415.26 195L1394.77 257L1392.72 270L1394 273.05L1401 271.41L1407 268.37L1426 252.84L1450.11 227L1482 184.65L1489 181.44L1492.93 183L1494.6 186L1494.3 195L1486.49 214L1455.39 263L1429 293.37L1414 305.39L1402 311.33L1394 313.33L1386 313.61L1379 312.43L1372 309.52L1361.53 301L1355.7 288L1354.31 273L1355.63 256L1359.65 240L1374 196.29L1354.84 218L1333.83 246L1302.7 292L1287.3 317L1282.86 322L1276 327.07L1268 329.21L1262 328.35L1257 326.33L1251.53 322L1248.68 318L1246.62 312L1247 295.41L1231 313.58L1223 320.46L1214 325.33L1205 328.38L1196 328.76L1188 327.21L1180.32 323L1175.52 318L1171.56 311L1168.46 296L1169.52 277L1177.38 248L1177 246.28L1162 253.88L1159 256.57L1148.3 285L1136.25 307L1121.38 327L1110 338.41L1103 343.4L1093 348.34L1086 350.4L1075 351.29L1065 349.46L1058 346.31L1050.69 340L1046 332.78L1029.39 357L1011 378L997 388.27L985 392.31L973 392.22L961 387.27L952.55 378L949.68 370L949.67 352L953.5 334L962.52 309L982.75 264L970 267.37L957 268.69L927.43 315L904.65 344L883 365.26L873 372.26L861 378.32L850 381.39L837 382.4L828 381.14L818 377.45L809.64 371L803 361.66L781.44 398L756 430.64L742 442.33L734 446.48L726 448.25L713 446.47L704.17 440L698.63 430L696.59 420L696.61 400L699.72 377L714 314.57L675.53 349L677.43 367L676.41 393L672.17 409L661.49 430L647.26 447L637 455.34L622 463.33ZM27 645.16L21 645.17L15 642.49L11.64 639L8.68 633L7.46 620L9.66 604L31.83 523L45.61 483L69.66 420L111.59 329L157.57 244L168.51 226L225.5 142L249.55 112L276 84.64L282 80.48L289 77.62L298 76.35L308 77.54L316 82.15L319.25 86L321.3 91L322.33 108L319.42 123L302.43 179L281.66 240L264.67 298L245.75 373L238.65 407L239 409.64L272.68 348L331.66 250L365.64 199L378.59 182L428.74 119L448 99.89L458 93.73L467 91.65L477 93.56L482 96.92L487.56 104L490.3 113L490.36 121L487.3 135L437.77 252L412.64 321L398.78 365L391.7 392L383.7 428L379.72 455L379.32 475L381 485.69L382.69 489L386 491.36L395 491.49L405 488.31L416 482.27L434 467.39L452.19 447L457 443.65L461 443.74L465.7 449L466.46 453L465.39 457L452.5 479L441.17 494L420 513.49L406 521.4L392 525.46L384 526.32L373 525.44L360 520.44L349.55 511L344.66 503L341.7 495L338.46 476L338.55 457L340.71 441L357.59 364L386.62 275L396.58 248L427 174.9L383.75 235L331.8 319L303.72 369L254.45 463L236.45 493L227 502.51L217 506.52L210 506.28L203 504.46L198 501.46L192.87 495L189.55 485L189.65 468L193.63 438L204.72 380L230.63 278L261.34 176L269.19 148L269 145.51L245.72 177L208.76 234L177.63 288L142.75 356L113.77 420L96.68 461L77.85 511L56.82 575L40.38 633L35 641.3ZM1231 165.14L1224 164.18L1220 161.25L1216.69 156L1215.52 151L1216.59 143L1227.72 125L1250 102.51L1268 88.66L1281 82.49L1286 81.86L1292 83.57L1295.31 87L1296.47 90L1296.28 96L1294.35 100L1282.94 112L1245 157L1240 161.45ZM1123 236L1133 234.46L1134.41 233L1136.3 220L1135.37 210L1134 207.92L1124 217.34L1115 232L1115 235.23ZM858.34 268L878.2 246L885.23 234L886 230.37L867.73 252ZM1084.6 317L1093 311.26L1106.09 296L1118.37 277L1124 263.2L1111 261.37L1101 256.49L1099.63 257L1090.73 277L1084.71 295L1081.64 313L1082.45 317ZM463.07 374L475.24 358L517.1 295L522 285.72L517 286.63L509 292.9L491.71 314L472.73 347L466.71 361ZM598.54 437L614 427.16L625.33 415L633.18 400L637.34 387L637 385.16L618.74 404L609.75 415L598.92 432L596.75 437Z"/></g>
</svg>
